<?xml version="1.0" encoding="UTF-8"?>
<!DOCTYPE svg PUBLIC "-//W3C//DTD SVG 1.1//EN"
    "http://www.w3.org/Graphics/SVG/1.1/DTD/svg11.dtd"><svg xmlns="http://www.w3.org/2000/svg" height="400.0000" stroke-opacity="1" viewBox="0 0 400 400" font-size="1" width="400.0000" xmlns:xlink="http://www.w3.org/1999/xlink" stroke="rgb(0,0,0)" version="1.1"><defs></defs><g stroke-linejoin="miter" stroke-opacity="1.0" fill-opacity="0.0" stroke="rgb(0,0,0)" stroke-width="1.4751271131668615" fill="rgb(0,0,0)" stroke-linecap="butt" stroke-miterlimit="10.0"><path d="M 400.0000,370.0000 l -0.0000,-340.0000 h -400.0000 l -0.0000,340.0000 Z"/></g><g stroke-linejoin="miter" stroke-opacity="1.0" fill-opacity="1.0" stroke="rgb(0,0,0)" stroke-width="0.0" fill="rgb(0,0,0)" stroke-linecap="butt" stroke-miterlimit="10.0"><path d="M 350.3096,232.6755 ZM 350.7850,231.1277 l 0.2985,-0.0111 c 0.0332,0.2764 0.1548,0.8071 0.3980 1.0614c 0.1106,0.1216 0.4091,0.3206 0.8181 0.3206c 0.3870,-0.0000 0.9619,-0.3096 0.9619 -0.8513c 0.0000,-0.4754 -0.2653,-0.7960 -1.1388 -1.1719c -0.8071,-0.3538 -1.2272,-0.5860 -1.2272 -1.4151c 0.0000,-0.7407 0.6523,-1.2714 1.5257 -1.2714c 0.5528,-0.0000 0.9619,0.0995 1.3046 0.2764c 0.0663,0.3538 0.0995,0.7297 0.1216 1.1277l -0.2985,0.0111 c -0.2322,-0.9066 -0.8955,-1.0835 -1.1277 -1.0835c -0.4201,-0.0000 -0.8513,0.1658 -0.8513 0.7739c 0.0000,0.4422 0.2101,0.6633 0.8181 0.8845c 0.8955,0.3317 1.6142,0.7297 1.6142 1.6142c 0.0000,1.0945 -1.1609,1.4151 -1.6805 1.4151c -0.3870,-0.0000 -0.7076,-0.0442 -0.9950 -0.1216c -0.0774,-0.0111 -0.1327,-0.0221 -0.2101 -0.0221c -0.0553,-0.0000 -0.1437,0.0111 -0.2543 0.0332c 0.0000,-0.4643 -0.0332,-1.0282 -0.0774 -1.5699ZM 354.4113,232.6755 ZM 355.2736,226.3626 c 0.0000,-0.2875 0.2322,-0.5307 0.5196 -0.5307c 0.2985,-0.0000 0.5307,0.2432 0.5307 0.5307c 0.0000,0.2985 -0.2322,0.5307 -0.5307 0.5307c -0.2875,-0.0000 -0.5196,-0.2322 -0.5196 -0.5307ZM 355.2736,226.3626 ZM 356.3239,231.8795 c 0.0000,0.3206 0.1216,0.4865 0.4754 0.4865h 0.2101 c 0.0553,-0.0000 0.0995,0.0332 0.0995 0.0884v 0.2101 l -0.0221,0.0221 c 0.0000,-0.0000 -0.7629,-0.0221 -1.1940 -0.0221c -0.3870,-0.0000 -1.1388,0.0221 -1.1388 0.0221l -0.0221,-0.0221 v -0.2101 c 0.0000,-0.0553 0.0332,-0.0884 0.0884 -0.0884h 0.2101 c 0.3648,-0.0000 0.4754,-0.1658 0.4754 -0.4865v -2.7529 c 0.0000,-0.5860 -0.0995,-0.6744 -0.2543 -0.6744c -0.1437,-0.0000 -0.2764,0.0111 -0.4643 0.0553l -0.0553,-0.3096 c 0.7076,-0.1216 0.8292,-0.1658 1.1498 -0.3206c 0.1216,-0.0442 0.1990,-0.0884 0.2764 -0.0884h 0.1658 v 4.0907 ZM 357.3300,232.6755 ZM 361.3543,231.8795 v -2.4212 c 0.0000,-0.7739 -0.1327,-1.1388 -0.7186 -1.1388c -0.4865,-0.0000 -0.9066,0.1879 -1.4704 0.8513v 2.7087 c 0.0000,0.3206 0.1106,0.4865 0.4754 0.4865h 0.1548 c 0.0553,-0.0000 0.0884,0.0332 0.0884 0.0884v 0.2101 l -0.0221,0.0221 c 0.0000,-0.0000 -0.6965,-0.0221 -1.1277 -0.0221c -0.3980,-0.0000 -1.1498,0.0221 -1.1498 0.0221l -0.0221,-0.0221 v -0.2101 c 0.0000,-0.0553 0.0332,-0.0884 0.0884 -0.0884h 0.2101 c 0.3759,-0.0000 0.4754,-0.1658 0.4754 -0.4865v -2.7529 c 0.0000,-0.5970 -0.0884,-0.6744 -0.2432 -0.6744c -0.1437,-0.0000 -0.2764,0.0111 -0.4643 0.0553l -0.0553,-0.3096 c 0.4643,-0.0774 0.7960,-0.1327 1.1388 -0.3206c 0.1216,-0.0553 0.2101,-0.0884 0.2875 -0.0884h 0.1658 l -0.0332,0.9840 h 0.0332 c 0.7076,-0.8292 1.2383,-0.9840 1.8021 -0.9840c 0.9950,-0.0000 1.2051,0.7629 1.2051 1.7468v 2.3438 c 0.0000,0.3206 0.1216,0.4865 0.4754 0.4865h 0.2101 c 0.0553,-0.0000 0.0995,0.0332 0.0995 0.0884v 0.2101 l -0.0221,0.0221 c 0.0000,-0.0000 -0.7629,-0.0221 -1.1940 -0.0221c -0.3870,-0.0000 -1.0835,0.0221 -1.0835 0.0221l -0.0221,-0.0221 v -0.2101 c 0.0000,-0.0553 0.0332,-0.0884 0.0884 -0.0884h 0.1548 c 0.3648,-0.0000 0.4754,-0.1658 0.4754 -0.4865Z"/></g><g stroke-linejoin="miter" stroke-opacity="1.0" fill-opacity="0.0" stroke="rgb(255,0,0)" stroke-width="1.4751271131668615" fill="rgb(0,0,0)" stroke-linecap="butt" stroke-miterlimit="10.0"><path d="M 323.1183,231.6534 l -4.6667,-4.6667 M 323.1183,226.9867 l -4.6667,4.6667 "/></g><g stroke-linejoin="miter" stroke-opacity="1.0" fill-opacity="0.0" stroke="rgb(255,0,0)" stroke-width="1.4751271131668615" fill="rgb(0,0,0)" stroke-dashoffset="0.0" stroke-linecap="butt" stroke-miterlimit="10.0" stroke-dasharray="3.333333333333332,3.333333333333332,0.6666666666666664,0.6666666666666664,0.6666666666666664,3.333333333333332"><path d="M 304.1183,229.3201 h 33.3333 "/></g><g stroke-linejoin="miter" stroke-opacity="1.0" fill-opacity="1.0" stroke="rgb(0,0,0)" stroke-width="0.0" fill="rgb(0,0,0)" stroke-linecap="butt" stroke-miterlimit="10.0"><path d="M 350.3538,218.2891 ZM 353.5710,215.5804 l -0.8734,0.2211 c -0.9729,0.2985 -1.1166,0.8071 -1.1166 1.3046c 0.0000,0.3427 0.1658,0.8624 0.8624 0.8624c 0.3317,-0.0000 0.8402,-0.3206 1.1277 -0.5638v -1.8242 ZM 353.5710,215.5804 ZM 354.2786,218.4218 c -0.4201,-0.0000 -0.6523,-0.3759 -0.6965 -0.6412l -0.2543,0.1769 c -0.5086,0.3538 -0.6965,0.4643 -1.2051 0.4643c -0.7739,-0.0000 -1.3378,-0.4422 -1.3378 -1.2714c 0.0000,-0.8402 0.7186,-1.4151 1.7689 -1.6805l 1.0171,-0.2543 c 0.0000,-1.2493 -0.5749,-1.4815 -0.9508 -1.4815c -0.4201,-0.0000 -0.9066,0.1879 -0.9066 0.5307c 0.0000,0.1216 0.0221,0.1879 0.0332 0.2211c 0.0221,0.0442 0.0332,0.1216 0.0332 0.1990c 0.0000,0.1437 -0.1106,0.3648 -0.4312 0.3648c -0.2653,-0.0000 -0.4422,-0.1769 -0.4422 -0.4422c 0.0000,-0.6412 1.0392,-1.2051 1.7468 -1.2051c 0.8071,-0.0000 1.7358,0.3317 1.7358 1.9016v 1.6252 c 0.0000,0.6744 0.0111,0.9619 0.2653 0.9619c 0.2432,-0.0000 0.3096,-0.3096 0.3206 -0.5528l 0.2764,0.0553 c -0.0663,0.8071 -0.4091,1.0282 -0.9729 1.0282ZM 355.3400,218.2891 ZM 356.3239,217.4931 v -2.7529 c 0.0000,-0.5528 -0.0774,-0.6744 -0.2432 -0.6744c -0.1437,-0.0000 -0.2764,0.0111 -0.4643 0.0553l -0.0553,-0.3096 c 0.6965,-0.1216 0.8181,-0.1548 1.1498 -0.3206c 0.1106,-0.0553 0.1990,-0.0884 0.2764 -0.0884h 0.1658 l -0.0332,0.9950 h 0.0332 c 0.2875,-0.4312 0.7739,-0.9950 1.2935 -0.9950c 0.4533,-0.0000 0.6191,0.2211 0.6191 0.5086c 0.0000,0.2875 -0.1879,0.4643 -0.4754 0.4643c -0.2211,-0.0000 -0.3427,-0.0884 -0.4533 -0.1990c -0.0663,-0.0663 -0.1437,-0.0995 -0.2211 -0.0995c -0.1216,-0.0000 -0.3648,0.1990 -0.6302 0.5749c -0.0774,0.0995 -0.1327,0.2432 -0.1327 0.3870v 2.4544 c 0.0000,0.3206 0.1106,0.4865 0.4754 0.4865h 0.3206 c 0.0553,-0.0000 0.0995,0.0332 0.0995 0.0884v 0.2101 l -0.0221,0.0221 c 0.0000,-0.0000 -0.8734,-0.0221 -1.3046 -0.0221c -0.3980,-0.0000 -1.1498,0.0221 -1.1498 0.0221l -0.0111,-0.0221 v -0.2101 c 0.0000,-0.0553 0.0221,-0.0884 0.0774 -0.0884h 0.2101 c 0.3759,-0.0000 0.4754,-0.1658 0.4754 -0.4865ZM 359.1763,218.2891 ZM 360.8237,217.6810 c 0.2211,0.2653 0.4533,0.3538 0.7960 0.3538c 1.0503,-0.0000 1.5810,-0.9729 1.5810 -2.2333c 0.0000,-1.1277 -0.5749,-1.9348 -1.2493 -1.9348c -0.1216,-0.0000 -0.6965,0.0221 -1.1277 0.4754v 3.3389 ZM 360.8237,217.6810 ZM 359.9945,211.9541 c 0.0000,-0.6302 -0.1106,-0.8071 -0.3317 -0.8071l -0.3538,0.0442 c -0.0332,-0.0000 -0.0553,-0.0221 -0.0553 -0.0553l -0.0221,-0.2764 c 0.1769,-0.0000 0.5749,-0.0663 0.7629 -0.0995c 0.1990,-0.0442 0.3648,-0.0884 0.5860 -0.1879h 0.2432 v 3.4273 c 0.3759,-0.4091 0.8181,-0.6081 1.3488 -0.6081c 0.9619,-0.0000 1.8795,0.9176 1.8795 2.2664c 0.0000,1.7579 -1.2383,2.7529 -2.3659 2.7529c -0.4754,-0.0000 -0.8292,-0.1327 -1.1498 -0.4091c -0.0995,0.1327 -0.2432,0.2985 -0.3427 0.4091l -0.2322,-0.0553 c 0.0332,-0.2653 0.0332,-0.4422 0.0332 -0.8734v -5.5279 ZM 364.4610,218.2891 ZM 365.3234,211.9762 c 0.0000,-0.2875 0.2322,-0.5307 0.5196 -0.5307c 0.2985,-0.0000 0.5307,0.2432 0.5307 0.5307c 0.0000,0.2985 -0.2322,0.5307 -0.5307 0.5307c -0.2875,-0.0000 -0.5196,-0.2322 -0.5196 -0.5307ZM 365.3234,211.9762 ZM 366.3737,217.4931 c 0.0000,0.3206 0.1216,0.4865 0.4754 0.4865h 0.2101 c 0.0553,-0.0000 0.0995,0.0332 0.0995 0.0884v 0.2101 l -0.0221,0.0221 c 0.0000,-0.0000 -0.7629,-0.0221 -1.1940 -0.0221c -0.3870,-0.0000 -1.1388,0.0221 -1.1388 0.0221l -0.0221,-0.0221 v -0.2101 c 0.0000,-0.0553 0.0332,-0.0884 0.0884 -0.0884h 0.2101 c 0.3648,-0.0000 0.4754,-0.1658 0.4754 -0.4865v -2.7529 c 0.0000,-0.5860 -0.0995,-0.6744 -0.2543 -0.6744c -0.1437,-0.0000 -0.2764,0.0111 -0.4643 0.0553l -0.0553,-0.3096 c 0.7076,-0.1216 0.8292,-0.1658 1.1498 -0.3206c 0.1216,-0.0442 0.1990,-0.0884 0.2764 -0.0884h 0.1658 v 4.0907 ZM 367.3798,218.2891 ZM 369.1929,213.9663 v 2.8303 c 0.0000,0.6855 0.0663,1.0171 0.3648 1.0171c 0.2875,-0.0000 0.5086,-0.0884 0.7960 -0.3096l 0.1990,0.1879 c -0.4312,0.4865 -0.8734,0.7297 -1.3820 0.7297c -0.5086,-0.0000 -0.8071,-0.3096 -0.8071 -1.0945v -3.3610 h -0.7186 c -0.0332,-0.0000 -0.0442,-0.0111 -0.0442 -0.0442v -0.3427 c 0.0000,-0.0332 0.0111,-0.0442 0.0332 -0.0442c 0.7407,-0.0000 0.9176,-0.4312 0.9176 -1.2714v -0.2101 l 0.6412,-0.2211 v 1.7026 h 1.2161 c 0.0553,-0.0000 0.0884,0.0221 0.0884 0.0663v 0.2211 c 0.0000,0.0995 -0.1548,0.1437 -0.2653 0.1437h -1.0392 ZM 370.7186,218.2891 ZM 371.7026,217.4931 v -2.7529 c 0.0000,-0.5528 -0.0774,-0.6744 -0.2432 -0.6744c -0.1437,-0.0000 -0.2764,0.0111 -0.4643 0.0553l -0.0553,-0.3096 c 0.6965,-0.1216 0.8181,-0.1548 1.1498 -0.3206c 0.1106,-0.0553 0.1990,-0.0884 0.2764 -0.0884h 0.1658 l -0.0332,0.9950 h 0.0332 c 0.2875,-0.4312 0.7739,-0.9950 1.2935 -0.9950c 0.4533,-0.0000 0.6191,0.2211 0.6191 0.5086c 0.0000,0.2875 -0.1879,0.4643 -0.4754 0.4643c -0.2211,-0.0000 -0.3427,-0.0884 -0.4533 -0.1990c -0.0663,-0.0663 -0.1437,-0.0995 -0.2211 -0.0995c -0.1216,-0.0000 -0.3648,0.1990 -0.6302 0.5749c -0.0774,0.0995 -0.1327,0.2432 -0.1327 0.3870v 2.4544 c 0.0000,0.3206 0.1106,0.4865 0.4754 0.4865h 0.3206 c 0.0553,-0.0000 0.0995,0.0332 0.0995 0.0884v 0.2101 l -0.0221,0.0221 c 0.0000,-0.0000 -0.8734,-0.0221 -1.3046 -0.0221c -0.3980,-0.0000 -1.1498,0.0221 -1.1498 0.0221l -0.0111,-0.0221 v -0.2101 c 0.0000,-0.0553 0.0221,-0.0884 0.0774 -0.0884h 0.2101 c 0.3759,-0.0000 0.4754,-0.1658 0.4754 -0.4865ZM 374.5550,218.2891 ZM 377.7722,215.5804 l -0.8734,0.2211 c -0.9729,0.2985 -1.1166,0.8071 -1.1166 1.3046c 0.0000,0.3427 0.1658,0.8624 0.8624 0.8624c 0.3317,-0.0000 0.8402,-0.3206 1.1277 -0.5638v -1.8242 ZM 377.7722,215.5804 ZM 378.4798,218.4218 c -0.4201,-0.0000 -0.6523,-0.3759 -0.6965 -0.6412l -0.2543,0.1769 c -0.5086,0.3538 -0.6965,0.4643 -1.2051 0.4643c -0.7739,-0.0000 -1.3378,-0.4422 -1.3378 -1.2714c 0.0000,-0.8402 0.7186,-1.4151 1.7689 -1.6805l 1.0171,-0.2543 c 0.0000,-1.2493 -0.5749,-1.4815 -0.9508 -1.4815c -0.4201,-0.0000 -0.9066,0.1879 -0.9066 0.5307c 0.0000,0.1216 0.0221,0.1879 0.0332 0.2211c 0.0221,0.0442 0.0332,0.1216 0.0332 0.1990c 0.0000,0.1437 -0.1106,0.3648 -0.4312 0.3648c -0.2653,-0.0000 -0.4422,-0.1769 -0.4422 -0.4422c 0.0000,-0.6412 1.0392,-1.2051 1.7468 -1.2051c 0.8071,-0.0000 1.7358,0.3317 1.7358 1.9016v 1.6252 c 0.0000,0.6744 0.0111,0.9619 0.2653 0.9619c 0.2432,-0.0000 0.3096,-0.3096 0.3206 -0.5528l 0.2764,0.0553 c -0.0663,0.8071 -0.4091,1.0282 -0.9729 1.0282ZM 379.5412,218.2891 ZM 380.5252,217.4931 v -2.7529 c 0.0000,-0.5528 -0.0774,-0.6744 -0.2432 -0.6744c -0.1437,-0.0000 -0.2764,0.0111 -0.4643 0.0553l -0.0553,-0.3096 c 0.6965,-0.1216 0.8181,-0.1548 1.1498 -0.3206c 0.1106,-0.0553 0.1990,-0.0884 0.2764 -0.0884h 0.1658 l -0.0332,0.9950 h 0.0332 c 0.2875,-0.4312 0.7739,-0.9950 1.2935 -0.9950c 0.4533,-0.0000 0.6191,0.2211 0.6191 0.5086c 0.0000,0.2875 -0.1879,0.4643 -0.4754 0.4643c -0.2211,-0.0000 -0.3427,-0.0884 -0.4533 -0.1990c -0.0663,-0.0663 -0.1437,-0.0995 -0.2211 -0.0995c -0.1216,-0.0000 -0.3648,0.1990 -0.6302 0.5749c -0.0774,0.0995 -0.1327,0.2432 -0.1327 0.3870v 2.4544 c 0.0000,0.3206 0.1106,0.4865 0.4754 0.4865h 0.3206 c 0.0553,-0.0000 0.0995,0.0332 0.0995 0.0884v 0.2101 l -0.0221,0.0221 c 0.0000,-0.0000 -0.8734,-0.0221 -1.3046 -0.0221c -0.3980,-0.0000 -1.1498,0.0221 -1.1498 0.0221l -0.0111,-0.0221 v -0.2101 c 0.0000,-0.0553 0.0221,-0.0884 0.0774 -0.0884h 0.2101 c 0.3759,-0.0000 0.4754,-0.1658 0.4754 -0.4865ZM 383.3776,218.2891 ZM 385.6772,213.7562 c 0.0000,0.0553 -0.0663,0.0884 -0.1216 0.0884c -0.3317,-0.0000 -0.4754,0.0663 -0.4754 0.2432c 0.0000,0.0663 0.0221,0.1548 0.0663 0.2543l 1.2161,2.8524 l 1.2272,-2.8082 c 0.0553,-0.0995 0.0774,-0.1879 0.0774 -0.2543c 0.0000,-0.2322 -0.2211,-0.2875 -0.4643 -0.2875h -0.0442 c -0.0553,-0.0000 -0.1106,-0.0442 -0.1106 -0.0774v -0.2101 l 0.0221,-0.0332 c 0.0000,-0.0000 0.6523,0.0221 1.0392 0.0221c 0.3096,-0.0000 0.7629,-0.0221 0.7629 -0.0221l 0.0332,0.0221 v 0.2101 c 0.0000,0.0553 -0.0442,0.0884 -0.1216 0.0884c -0.4201,-0.0000 -0.6302,0.4312 -0.7850 0.7518c -0.5860,1.2383 -1.0724,2.3770 -1.9569 4.5108c -0.3317,0.7960 -0.7297,1.7247 -1.5146 1.7247c -0.2101,-0.0000 -0.6412,-0.1216 -0.6412 -0.5196c 0.0000,-0.3317 0.2432,-0.4312 0.4201 -0.4312c 0.1658,-0.0000 0.2764,0.0663 0.3427 0.1548c 0.1106,0.1106 0.1879,0.1879 0.2985 0.1879c 0.1658,-0.0000 0.5528,-0.9508 0.8292 -1.6252c 0.0663,-0.1327 0.0884,-0.2432 0.0884 -0.3427c 0.0000,-0.1106 -0.0995,-0.4091 -0.1879 -0.6302l -1.3930,-3.2394 c -0.1769,-0.4201 -0.2985,-0.5417 -0.6744 -0.5417c -0.0663,-0.0000 -0.1106,-0.0332 -0.1106 -0.0774v -0.2211 l 0.0221,-0.0221 c 0.0000,-0.0000 0.4865,0.0221 0.8181 0.0221c 0.5196,-0.0000 1.3156,-0.0221 1.3156 -0.0221l 0.0221,0.0332 v 0.1990 Z"/></g><g stroke-linejoin="miter" stroke-opacity="1.0" fill-opacity="0.5" stroke="rgb(165,42,42)" stroke-width="1.4751271131668615" fill="rgb(165,42,42)" stroke-linecap="butt" stroke-miterlimit="10.0"><path d="M 322.4516,217.9960 l 1.0301,-3.1702 l -2.6967,-1.9593 l -2.6967,1.9593 l 1.0301,3.1702 Z"/></g><g stroke-linejoin="miter" stroke-opacity="1.0" fill-opacity="0.0" stroke="rgb(165,42,42)" stroke-width="1.4751271131668615" fill="rgb(0,0,0)" stroke-dashoffset="0.0" stroke-linecap="butt" stroke-miterlimit="10.0" stroke-dasharray="3.333333333333332,3.333333333333332,0.9999999999999996,3.333333333333332"><path d="M 304.1183,215.7020 h 33.3333 "/></g><g stroke-linejoin="miter" stroke-opacity="1.0" fill-opacity="1.0" stroke="rgb(0,0,0)" stroke-width="0.0" fill="rgb(0,0,0)" stroke-linecap="butt" stroke-miterlimit="10.0"><path d="M 350.3759,203.0293 ZM 354.6213,202.0232 c -0.4865,0.8402 -1.0171,1.1388 -1.6805 1.1388c -1.3267,-0.0000 -2.1559,-1.0061 -2.1559 -2.4323c 0.0000,-1.5699 0.9840,-2.5871 2.1780 -2.5871c 1.0614,-0.0000 1.6252,0.5417 1.6252 1.1277c 0.0000,0.3206 -0.1990,0.4865 -0.4312 0.4865c -0.2322,-0.0000 -0.4533,-0.1216 -0.4865 -0.3980c -0.0442,-0.3648 -0.1106,-0.8402 -0.7629 -0.8402c -0.7297,-0.0000 -1.2714,0.7739 -1.2714 1.9679c 0.0000,1.2935 0.6965,2.1891 1.5478 2.1891c 0.4754,-0.0000 0.8955,-0.3096 1.2383 -0.8071ZM 354.8314,203.0293 ZM 357.1310,198.4964 c 0.0000,0.0553 -0.0663,0.0884 -0.1216 0.0884c -0.3317,-0.0000 -0.4754,0.0663 -0.4754 0.2432c 0.0000,0.0663 0.0221,0.1548 0.0663 0.2543l 1.2161,2.8524 l 1.2272,-2.8082 c 0.0553,-0.0995 0.0774,-0.1879 0.0774 -0.2543c 0.0000,-0.2322 -0.2211,-0.2875 -0.4643 -0.2875h -0.0442 c -0.0553,-0.0000 -0.1106,-0.0442 -0.1106 -0.0774v -0.2101 l 0.0221,-0.0332 c 0.0000,-0.0000 0.6523,0.0221 1.0392 0.0221c 0.3096,-0.0000 0.7629,-0.0221 0.7629 -0.0221l 0.0332,0.0221 v 0.2101 c 0.0000,0.0553 -0.0442,0.0884 -0.1216 0.0884c -0.4201,-0.0000 -0.6302,0.4312 -0.7850 0.7518c -0.5860,1.2383 -1.0724,2.3770 -1.9569 4.5108c -0.3317,0.7960 -0.7297,1.7247 -1.5146 1.7247c -0.2101,-0.0000 -0.6412,-0.1216 -0.6412 -0.5196c 0.0000,-0.3317 0.2432,-0.4312 0.4201 -0.4312c 0.1658,-0.0000 0.2764,0.0663 0.3427 0.1548c 0.1106,0.1106 0.1879,0.1879 0.2985 0.1879c 0.1658,-0.0000 0.5528,-0.9508 0.8292 -1.6252c 0.0663,-0.1327 0.0884,-0.2432 0.0884 -0.3427c 0.0000,-0.1106 -0.0995,-0.4091 -0.1879 -0.6302l -1.3930,-3.2394 c -0.1769,-0.4201 -0.2985,-0.5417 -0.6744 -0.5417c -0.0663,-0.0000 -0.1106,-0.0332 -0.1106 -0.0774v -0.2211 l 0.0221,-0.0221 c 0.0000,-0.0000 0.4865,0.0221 0.8181 0.0221c 0.5196,-0.0000 1.3156,-0.0221 1.3156 -0.0221l 0.0221,0.0332 v 0.1990 ZM 360.4588,203.0293 ZM 364.7043,202.0232 c -0.4865,0.8402 -1.0171,1.1388 -1.6805 1.1388c -1.3267,-0.0000 -2.1559,-1.0061 -2.1559 -2.4323c 0.0000,-1.5699 0.9840,-2.5871 2.1780 -2.5871c 1.0614,-0.0000 1.6252,0.5417 1.6252 1.1277c 0.0000,0.3206 -0.1990,0.4865 -0.4312 0.4865c -0.2322,-0.0000 -0.4533,-0.1216 -0.4865 -0.3980c -0.0442,-0.3648 -0.1106,-0.8402 -0.7629 -0.8402c -0.7297,-0.0000 -1.2714,0.7739 -1.2714 1.9679c 0.0000,1.2935 0.6965,2.1891 1.5478 2.1891c 0.4754,-0.0000 0.8955,-0.3096 1.2383 -0.8071ZM 364.9143,203.0293 ZM 365.9646,202.2333 v -5.5390 c 0.0000,-0.6302 -0.1106,-0.8071 -0.3317 -0.8071l -0.3538,0.0442 c -0.0332,-0.0000 -0.0663,-0.0221 -0.0663 -0.0553l -0.0221,-0.2764 c 0.1769,-0.0000 0.5860,-0.0663 0.7739 -0.0995c 0.1990,-0.0442 0.3538,-0.0884 0.5749 -0.1879h 0.2432 v 6.9210 c 0.0000,0.3206 0.1216,0.4865 0.4754 0.4865h 0.2653 c 0.0442,-0.0000 0.0884,0.0332 0.0884 0.0884v 0.2101 l -0.0221,0.0221 c 0.0000,-0.0000 -0.8071,-0.0221 -1.2383 -0.0221c -0.3870,-0.0000 -1.1940,0.0221 -1.1940 0.0221l -0.0111,-0.0221 v -0.2101 c 0.0000,-0.0553 0.0221,-0.0884 0.0774 -0.0884h 0.2653 c 0.3648,-0.0000 0.4754,-0.1658 0.4754 -0.4865ZM 367.7888,203.0293 ZM 369.0492,199.9668 h 2.0343 c 0.1106,-0.0000 0.1548,-0.0553 0.1548 -0.1548c 0.0000,-1.0282 -0.5196,-1.2935 -0.9176 -1.2935c -0.2543,-0.0000 -1.0835,0.0995 -1.2714 1.4483ZM 369.0492,199.9668 ZM 371.9679,202.0011 l 0.2211,0.1769 c -0.4201,0.5749 -1.0724,0.9840 -1.8684 0.9840c -1.5146,-0.0000 -2.1559,-1.1277 -2.1559 -2.3328c 0.0000,-1.6805 1.1056,-2.6866 2.1559 -2.6866c 1.4594,-0.0000 1.8021,1.1388 1.8021 2.0674c 0.0000,0.1216 -0.0774,0.1879 -0.1990 0.1879h -2.9077 c -0.0111,0.0663 -0.0111,0.1327 -0.0111 0.2211c 0.0000,1.1277 0.7850,2.0011 1.5810 2.0011c 0.6081,-0.0000 0.9950,-0.1990 1.3820 -0.6191Z"/></g><g stroke-linejoin="miter" stroke-opacity="1.0" fill-opacity="0.5" stroke="rgb(0,0,255)" stroke-width="1.4751271131668615" fill="rgb(0,0,255)" stroke-linecap="butt" stroke-miterlimit="10.0"><path d="M 322.4516,201.4045 l -1.6667,-2.8868 l -1.6667,2.8868 Z"/></g><g stroke-linejoin="miter" stroke-opacity="1.0" fill-opacity="0.0" stroke="rgb(0,0,255)" stroke-width="1.4751271131668615" fill="rgb(0,0,0)" stroke-dashoffset="0.0" stroke-linecap="butt" stroke-miterlimit="10.0" stroke-dasharray="0.6666666666666664,0.6666666666666664"><path d="M 304.1183,200.4422 h 33.3333 "/></g><g stroke-linejoin="miter" stroke-opacity="1.0" fill-opacity="1.0" stroke="rgb(0,0,0)" stroke-width="0.0" fill="rgb(0,0,0)" stroke-linecap="butt" stroke-miterlimit="10.0"><path d="M 350.4091,190.1797 ZM 354.1017,189.1957 v -2.8635 c -0.2653,-0.4201 -0.5638,-0.6523 -1.0835 -0.6523c -0.2211,-0.0000 -0.6744,0.0332 -1.0282 0.5528c -0.1548,0.2322 -0.3427,0.7076 -0.3427 1.5036c 0.0000,1.4483 0.7518,2.1117 1.3488 2.1117c 0.3648,-0.0000 0.6633,-0.2211 1.1056 -0.6523ZM 354.1017,189.1957 ZM 354.9309,182.4627 v 6.3903 c 0.0000,0.3317 0.0221,0.5086 0.0442 0.5860c 0.0332,0.0995 0.1548,0.1658 0.2432 0.1658c 0.1327,-0.0000 0.3759,-0.0000 0.5417 -0.0332l 0.0442,0.3096 c -0.6412,0.1106 -1.2161,0.2322 -1.4483 0.4312h -0.2653 l 0.0332,-0.7629 c -0.4201,0.4312 -0.8513,0.7629 -1.4151 0.7629c -1.1940,-0.0000 -1.9237,-1.0171 -1.9237 -2.3770c 0.0000,-0.8181 0.2211,-1.5036 0.6965 -1.9790c 0.4422,-0.4201 0.9287,-0.6633 1.6584 -0.6633c 0.2211,-0.0000 0.7076,0.0995 0.9619 0.2432v -1.6915 c 0.0000,-0.6302 -0.0995,-0.8071 -0.3206 -0.8071l -0.3648,0.0442 c -0.0221,-0.0000 -0.0553,-0.0221 -0.0553 -0.0553l -0.0221,-0.2764 c 0.1769,-0.0000 0.5749,-0.0663 0.7629 -0.0995c 0.2101,-0.0442 0.3648,-0.0884 0.5860 -0.1879h 0.2432 ZM 355.8706,190.1797 ZM 356.2465,187.9132 c 0.0000,-1.5146 0.8181,-2.6202 2.2886 -2.6202c 1.6363,-0.0000 2.2664,1.3709 2.2664 2.5207c 0.0000,1.1056 -0.7186,2.4986 -2.2886 2.4986c -1.4815,-0.0000 -2.2664,-1.2714 -2.2664 -2.3991ZM 356.2465,187.9132 ZM 358.4135,185.6578 c -0.8845,-0.0000 -1.2935,1.0392 -1.2935 2.0011c 0.0000,0.8513 0.4865,2.2664 1.5810 2.2664c 0.4975,-0.0000 1.2272,-0.2985 1.2272 -1.7579c 0.0000,-1.6252 -0.6081,-2.5097 -1.5146 -2.5097ZM 361.1664,190.1797 ZM 363.3997,185.6468 c 0.0000,0.0553 -0.0442,0.0884 -0.0995 0.0884h -0.1658 c -0.2432,-0.0000 -0.3206,0.0663 -0.3206 0.1769c 0.0000,0.0774 0.0442,0.1769 0.0995 0.3317l 1.1609,2.9187 l 0.9619,-2.3991 l -0.1990,-0.4975 c -0.1437,-0.3759 -0.3759,-0.5307 -0.7076 -0.5307c -0.0553,-0.0000 -0.1106,-0.0221 -0.1106 -0.0774v -0.2211 l 0.0221,-0.0221 c 0.0000,-0.0000 0.6191,0.0221 1.0061 0.0221l 1.1056,-0.0221 l 0.0332,0.0221 v 0.2101 c 0.0000,0.0553 -0.0553,0.0884 -0.1106 0.0884h -0.1990 c -0.2211,-0.0000 -0.3206,0.0442 -0.3206 0.1548c 0.0000,0.0884 0.0442,0.1990 0.1106 0.3538l 1.1498,2.9187 l 1.1498,-2.8635 c 0.0332,-0.0663 0.0553,-0.1548 0.0553 -0.2432c 0.0000,-0.1879 -0.1216,-0.3206 -0.4975 -0.3206h -0.1658 c -0.0553,-0.0000 -0.0995,-0.0442 -0.0995 -0.0774v -0.2211 l 0.0332,-0.0221 c 0.0000,-0.0000 0.7297,0.0221 1.1388 0.0221c 0.3759,-0.0000 0.8181,-0.0221 0.8181 -0.0221l 0.0111,0.0221 v 0.2101 c 0.0000,0.0663 -0.0663,0.0884 -0.1327 0.0884c -0.2764,-0.0000 -0.5638,0.1216 -0.7629 0.6081l -1.5036,3.7369 c -0.0663,0.1658 -0.1548,0.2322 -0.2543 0.2322c -0.1106,-0.0000 -0.1990,-0.0663 -0.2653 -0.2211l -1.1056,-2.7640 l -1.1056,2.7418 c -0.0774,0.1769 -0.1658,0.2432 -0.2653 0.2432c -0.1106,-0.0000 -0.1990,-0.0663 -0.2653 -0.2211l -1.5146,-3.8253 c -0.1658,-0.4312 -0.3648,-0.5307 -0.6965 -0.5307c -0.0553,-0.0000 -0.1327,-0.0221 -0.1327 -0.0774v -0.2211 l 0.0221,-0.0221 c 0.0000,-0.0000 0.5196,0.0221 1.0061 0.0221c 0.5086,-0.0000 1.0945,-0.0221 1.0945 -0.0221l 0.0221,0.0332 v 0.1990 ZM 369.3919,190.1797 ZM 373.4163,189.3836 v -2.4212 c 0.0000,-0.7739 -0.1327,-1.1388 -0.7186 -1.1388c -0.4865,-0.0000 -0.9066,0.1879 -1.4704 0.8513v 2.7087 c 0.0000,0.3206 0.1106,0.4865 0.4754 0.4865h 0.1548 c 0.0553,-0.0000 0.0884,0.0332 0.0884 0.0884v 0.2101 l -0.0221,0.0221 c 0.0000,-0.0000 -0.6965,-0.0221 -1.1277 -0.0221c -0.3980,-0.0000 -1.1498,0.0221 -1.1498 0.0221l -0.0221,-0.0221 v -0.2101 c 0.0000,-0.0553 0.0332,-0.0884 0.0884 -0.0884h 0.2101 c 0.3759,-0.0000 0.4754,-0.1658 0.4754 -0.4865v -2.7529 c 0.0000,-0.5970 -0.0884,-0.6744 -0.2432 -0.6744c -0.1437,-0.0000 -0.2764,0.0111 -0.4643 0.0553l -0.0553,-0.3096 c 0.4643,-0.0774 0.7960,-0.1327 1.1388 -0.3206c 0.1216,-0.0553 0.2101,-0.0884 0.2875 -0.0884h 0.1658 l -0.0332,0.9840 h 0.0332 c 0.7076,-0.8292 1.2383,-0.9840 1.8021 -0.9840c 0.9950,-0.0000 1.2051,0.7629 1.2051 1.7468v 2.3438 c 0.0000,0.3206 0.1216,0.4865 0.4754 0.4865h 0.2101 c 0.0553,-0.0000 0.0995,0.0332 0.0995 0.0884v 0.2101 l -0.0221,0.0221 c 0.0000,-0.0000 -0.7629,-0.0221 -1.1940 -0.0221c -0.3870,-0.0000 -1.0835,0.0221 -1.0835 0.0221l -0.0221,-0.0221 v -0.2101 c 0.0000,-0.0553 0.0332,-0.0884 0.0884 -0.0884h 0.1548 c 0.3648,-0.0000 0.4754,-0.1658 0.4754 -0.4865ZM 375.1410,190.1797 ZM 377.3742,185.6468 c 0.0000,0.0553 -0.0442,0.0884 -0.0995 0.0884h -0.1658 c -0.2432,-0.0000 -0.3206,0.0663 -0.3206 0.1769c 0.0000,0.0774 0.0442,0.1769 0.0995 0.3317l 1.1609,2.9187 l 0.9619,-2.3991 l -0.1990,-0.4975 c -0.1437,-0.3759 -0.3759,-0.5307 -0.7076 -0.5307c -0.0553,-0.0000 -0.1106,-0.0221 -0.1106 -0.0774v -0.2211 l 0.0221,-0.0221 c 0.0000,-0.0000 0.6191,0.0221 1.0061 0.0221l 1.1056,-0.0221 l 0.0332,0.0221 v 0.2101 c 0.0000,0.0553 -0.0553,0.0884 -0.1106 0.0884h -0.1990 c -0.2211,-0.0000 -0.3206,0.0442 -0.3206 0.1548c 0.0000,0.0884 0.0442,0.1990 0.1106 0.3538l 1.1498,2.9187 l 1.1498,-2.8635 c 0.0332,-0.0663 0.0553,-0.1548 0.0553 -0.2432c 0.0000,-0.1879 -0.1216,-0.3206 -0.4975 -0.3206h -0.1658 c -0.0553,-0.0000 -0.0995,-0.0442 -0.0995 -0.0774v -0.2211 l 0.0332,-0.0221 c 0.0000,-0.0000 0.7297,0.0221 1.1388 0.0221c 0.3759,-0.0000 0.8181,-0.0221 0.8181 -0.0221l 0.0111,0.0221 v 0.2101 c 0.0000,0.0663 -0.0663,0.0884 -0.1327 0.0884c -0.2764,-0.0000 -0.5638,0.1216 -0.7629 0.6081l -1.5036,3.7369 c -0.0663,0.1658 -0.1548,0.2322 -0.2543 0.2322c -0.1106,-0.0000 -0.1990,-0.0663 -0.2653 -0.2211l -1.1056,-2.7640 l -1.1056,2.7418 c -0.0774,0.1769 -0.1658,0.2432 -0.2653 0.2432c -0.1106,-0.0000 -0.1990,-0.0663 -0.2653 -0.2211l -1.5146,-3.8253 c -0.1658,-0.4312 -0.3648,-0.5307 -0.6965 -0.5307c -0.0553,-0.0000 -0.1327,-0.0221 -0.1327 -0.0774v -0.2211 l 0.0221,-0.0221 c 0.0000,-0.0000 0.5196,0.0221 1.0061 0.0221c 0.5086,-0.0000 1.0945,-0.0221 1.0945 -0.0221l 0.0221,0.0332 v 0.1990 ZM 383.3665,190.1797 ZM 386.5837,187.4710 l -0.8734,0.2211 c -0.9729,0.2985 -1.1166,0.8071 -1.1166 1.3046c 0.0000,0.3427 0.1658,0.8624 0.8624 0.8624c 0.3317,-0.0000 0.8402,-0.3206 1.1277 -0.5638v -1.8242 ZM 386.5837,187.4710 ZM 387.2913,190.3123 c -0.4201,-0.0000 -0.6523,-0.3759 -0.6965 -0.6412l -0.2543,0.1769 c -0.5086,0.3538 -0.6965,0.4643 -1.2051 0.4643c -0.7739,-0.0000 -1.3378,-0.4422 -1.3378 -1.2714c 0.0000,-0.8402 0.7186,-1.4151 1.7689 -1.6805l 1.0171,-0.2543 c 0.0000,-1.2493 -0.5749,-1.4815 -0.9508 -1.4815c -0.4201,-0.0000 -0.9066,0.1879 -0.9066 0.5307c 0.0000,0.1216 0.0221,0.1879 0.0332 0.2211c 0.0221,0.0442 0.0332,0.1216 0.0332 0.1990c 0.0000,0.1437 -0.1106,0.3648 -0.4312 0.3648c -0.2653,-0.0000 -0.4422,-0.1769 -0.4422 -0.4422c 0.0000,-0.6412 1.0392,-1.2051 1.7468 -1.2051c 0.8071,-0.0000 1.7358,0.3317 1.7358 1.9016v 1.6252 c 0.0000,0.6744 0.0111,0.9619 0.2653 0.9619c 0.2432,-0.0000 0.3096,-0.3096 0.3206 -0.5528l 0.2764,0.0553 c -0.0663,0.8071 -0.4091,1.0282 -0.9729 1.0282ZM 388.3527,190.1797 ZM 389.3367,189.3836 v -2.7529 c 0.0000,-0.5528 -0.0774,-0.6744 -0.2432 -0.6744c -0.1437,-0.0000 -0.2764,0.0111 -0.4643 0.0553l -0.0553,-0.3096 c 0.6965,-0.1216 0.8181,-0.1548 1.1498 -0.3206c 0.1106,-0.0553 0.1990,-0.0884 0.2764 -0.0884h 0.1658 l -0.0332,0.9950 h 0.0332 c 0.2875,-0.4312 0.7739,-0.9950 1.2935 -0.9950c 0.4533,-0.0000 0.6191,0.2211 0.6191 0.5086c 0.0000,0.2875 -0.1879,0.4643 -0.4754 0.4643c -0.2211,-0.0000 -0.3427,-0.0884 -0.4533 -0.1990c -0.0663,-0.0663 -0.1437,-0.0995 -0.2211 -0.0995c -0.1216,-0.0000 -0.3648,0.1990 -0.6302 0.5749c -0.0774,0.0995 -0.1327,0.2432 -0.1327 0.3870v 2.4544 c 0.0000,0.3206 0.1106,0.4865 0.4754 0.4865h 0.3206 c 0.0553,-0.0000 0.0995,0.0332 0.0995 0.0884v 0.2101 l -0.0221,0.0221 c 0.0000,-0.0000 -0.8734,-0.0221 -1.3046 -0.0221c -0.3980,-0.0000 -1.1498,0.0221 -1.1498 0.0221l -0.0111,-0.0221 v -0.2101 c 0.0000,-0.0553 0.0221,-0.0884 0.0774 -0.0884h 0.2101 c 0.3759,-0.0000 0.4754,-0.1658 0.4754 -0.4865ZM 392.1891,190.1797 ZM 395.8817,189.1957 v -2.8635 c -0.2653,-0.4201 -0.5638,-0.6523 -1.0835 -0.6523c -0.2211,-0.0000 -0.6744,0.0332 -1.0282 0.5528c -0.1548,0.2322 -0.3427,0.7076 -0.3427 1.5036c 0.0000,1.4483 0.7518,2.1117 1.3488 2.1117c 0.3648,-0.0000 0.6633,-0.2211 1.1056 -0.6523ZM 395.8817,189.1957 ZM 396.7109,182.4627 v 6.3903 c 0.0000,0.3317 0.0221,0.5086 0.0442 0.5860c 0.0332,0.0995 0.1548,0.1658 0.2432 0.1658c 0.1327,-0.0000 0.3759,-0.0000 0.5417 -0.0332l 0.0442,0.3096 c -0.6412,0.1106 -1.2161,0.2322 -1.4483 0.4312h -0.2653 l 0.0332,-0.7629 c -0.4201,0.4312 -0.8513,0.7629 -1.4151 0.7629c -1.1940,-0.0000 -1.9237,-1.0171 -1.9237 -2.3770c 0.0000,-0.8181 0.2211,-1.5036 0.6965 -1.9790c 0.4422,-0.4201 0.9287,-0.6633 1.6584 -0.6633c 0.2211,-0.0000 0.7076,0.0995 0.9619 0.2432v -1.6915 c 0.0000,-0.6302 -0.0995,-0.8071 -0.3206 -0.8071l -0.3648,0.0442 c -0.0221,-0.0000 -0.0553,-0.0221 -0.0553 -0.0553l -0.0221,-0.2764 c 0.1769,-0.0000 0.5749,-0.0663 0.7629 -0.0995c 0.2101,-0.0442 0.3648,-0.0884 0.5860 -0.1879h 0.2432 Z"/></g><g stroke-linejoin="miter" stroke-opacity="1.0" fill-opacity="0.5" stroke="rgb(0,128,0)" stroke-width="1.4751271131668615" fill="rgb(0,128,0)" stroke-linecap="butt" stroke-miterlimit="10.0"><path d="M 322.4516,188.0542 l -0.0000,-3.3333 h -3.3333 l -0.0000,3.3333 Z"/></g><g stroke-linejoin="miter" stroke-opacity="1.0" fill-opacity="0.0" stroke="rgb(0,128,0)" stroke-width="1.4751271131668615" fill="rgb(0,0,0)" stroke-dashoffset="0.0" stroke-linecap="butt" stroke-miterlimit="10.0" stroke-dasharray="3.333333333333332,3.333333333333332"><path d="M 304.1183,186.3875 h 33.3333 "/></g><g stroke-linejoin="miter" stroke-opacity="1.0" fill-opacity="1.0" stroke="rgb(0,0,0)" stroke-width="0.0" fill="rgb(0,0,0)" stroke-linecap="butt" stroke-miterlimit="10.0"><path d="M 350.5196,174.9088 ZM 355.2626,173.6263 c 0.0000,0.5528 0.0553,0.7297 0.2764 0.7297c 0.1327,-0.0000 0.3759,-0.0221 0.5638 -0.0553l 0.0442,0.3096 c -0.6744,0.1216 -1.2161,0.2322 -1.4704 0.4312h -0.2432 l 0.0332,-0.8181 h -0.0332 c -0.6081,0.6633 -1.1056,0.8181 -1.5589 0.8181c -1.0945,-0.0000 -1.3820,-0.7407 -1.3820 -1.5036v -2.5207 c 0.0000,-0.3648 -0.0774,-0.5528 -0.4865 -0.5528c -0.0442,-0.0000 -0.1216,0.0111 -0.1879 0.0111l -0.0332,-0.0111 v -0.2875 l 0.0332,-0.0332 c 0.0000,-0.0000 0.7518,0.0221 1.1056 0.0221c 0.1548,-0.0000 0.4091,-0.0221 0.4091 -0.0221l -0.0111,0.8845 v 2.3549 c 0.0000,0.9840 0.5086,1.1609 0.8402 1.1609c 0.2543,-0.0000 0.4865,-0.0995 0.7186 -0.2653c 0.2653,-0.1990 0.4422,-0.3538 0.5528 -0.4975v -2.7308 c 0.0000,-0.3980 -0.0553,-0.5860 -0.4643 -0.5860c -0.0663,-0.0000 -0.1879,0.0111 -0.2211 0.0111l -0.0221,-0.0221 v -0.2764 l 0.0221,-0.0332 c 0.0000,-0.0000 0.7850,0.0221 1.0945 0.0221c 0.2543,-0.0000 0.4312,-0.0221 0.4312 -0.0221l -0.0111,0.8734 v 2.6092 ZM 356.2355,174.9088 ZM 357.8828,171.4373 v 2.7529 c 0.3870,0.4533 0.7518,0.4754 0.9287 0.4754c 1.1830,-0.0000 1.4483,-1.1056 1.4483 -2.0564c 0.0000,-1.3378 -0.5417,-2.0785 -1.2161 -2.0785c -0.3759,-0.0000 -0.9176,0.3206 -1.1609 0.9066ZM 357.8828,171.4373 ZM 357.0647,176.6556 v -5.4726 c 0.0000,-0.4201 -0.0995,-0.4975 -0.2543 -0.4975c -0.1437,-0.0000 -0.2764,0.0111 -0.4643 0.0553l -0.0553,-0.3096 c 0.7076,-0.1216 0.8402,-0.1658 1.1498 -0.3206c 0.1216,-0.0553 0.1990,-0.0884 0.2764 -0.0884h 0.1658 l -0.0332,0.8845 h 0.0332 c 0.5086,-0.7739 1.1056,-0.8845 1.4594 -0.8845c 1.0724,-0.0000 1.7800,1.1166 1.7800 2.2886c 0.0000,0.8955 -0.2764,1.5810 -0.7739 2.0896c -0.4312,0.4312 -0.8845,0.6412 -1.4704 0.6412c -0.3980,-0.0000 -0.7076,-0.0884 -0.9950 -0.2432v 1.8574 c 0.0000,0.3206 0.1216,0.4865 0.4754 0.4865h 0.2101 c 0.0553,-0.0000 0.0995,0.0332 0.0995 0.0884v 0.2101 l -0.0221,0.0221 c 0.0000,-0.0000 -0.7629,-0.0221 -1.1940 -0.0221c -0.3870,-0.0000 -1.1388,0.0221 -1.1388 0.0221l -0.0221,-0.0221 v -0.2101 c 0.0000,-0.0553 0.0332,-0.0884 0.0884 -0.0884h 0.2101 c 0.3648,-0.0000 0.4754,-0.1658 0.4754 -0.4865ZM 361.5312,174.9088 ZM 363.7645,170.3759 c 0.0000,0.0553 -0.0442,0.0884 -0.0995 0.0884h -0.1658 c -0.2432,-0.0000 -0.3206,0.0663 -0.3206 0.1769c 0.0000,0.0774 0.0442,0.1769 0.0995 0.3317l 1.1609,2.9187 l 0.9619,-2.3991 l -0.1990,-0.4975 c -0.1437,-0.3759 -0.3759,-0.5307 -0.7076 -0.5307c -0.0553,-0.0000 -0.1106,-0.0221 -0.1106 -0.0774v -0.2211 l 0.0221,-0.0221 c 0.0000,-0.0000 0.6191,0.0221 1.0061 0.0221l 1.1056,-0.0221 l 0.0332,0.0221 v 0.2101 c 0.0000,0.0553 -0.0553,0.0884 -0.1106 0.0884h -0.1990 c -0.2211,-0.0000 -0.3206,0.0442 -0.3206 0.1548c 0.0000,0.0884 0.0442,0.1990 0.1106 0.3538l 1.1498,2.9187 l 1.1498,-2.8635 c 0.0332,-0.0663 0.0553,-0.1548 0.0553 -0.2432c 0.0000,-0.1879 -0.1216,-0.3206 -0.4975 -0.3206h -0.1658 c -0.0553,-0.0000 -0.0995,-0.0442 -0.0995 -0.0774v -0.2211 l 0.0332,-0.0221 c 0.0000,-0.0000 0.7297,0.0221 1.1388 0.0221c 0.3759,-0.0000 0.8181,-0.0221 0.8181 -0.0221l 0.0111,0.0221 v 0.2101 c 0.0000,0.0663 -0.0663,0.0884 -0.1327 0.0884c -0.2764,-0.0000 -0.5638,0.1216 -0.7629 0.6081l -1.5036,3.7369 c -0.0663,0.1658 -0.1548,0.2322 -0.2543 0.2322c -0.1106,-0.0000 -0.1990,-0.0663 -0.2653 -0.2211l -1.1056,-2.7640 l -1.1056,2.7418 c -0.0774,0.1769 -0.1658,0.2432 -0.2653 0.2432c -0.1106,-0.0000 -0.1990,-0.0663 -0.2653 -0.2211l -1.5146,-3.8253 c -0.1658,-0.4312 -0.3648,-0.5307 -0.6965 -0.5307c -0.0553,-0.0000 -0.1327,-0.0221 -0.1327 -0.0774v -0.2211 l 0.0221,-0.0221 c 0.0000,-0.0000 0.5196,0.0221 1.0061 0.0221c 0.5086,-0.0000 1.0945,-0.0221 1.0945 -0.0221l 0.0221,0.0332 v 0.1990 ZM 369.7568,174.9088 ZM 372.9740,172.2001 l -0.8734,0.2211 c -0.9729,0.2985 -1.1166,0.8071 -1.1166 1.3046c 0.0000,0.3427 0.1658,0.8624 0.8624 0.8624c 0.3317,-0.0000 0.8402,-0.3206 1.1277 -0.5638v -1.8242 ZM 372.9740,172.2001 ZM 373.6816,175.0415 c -0.4201,-0.0000 -0.6523,-0.3759 -0.6965 -0.6412l -0.2543,0.1769 c -0.5086,0.3538 -0.6965,0.4643 -1.2051 0.4643c -0.7739,-0.0000 -1.3378,-0.4422 -1.3378 -1.2714c 0.0000,-0.8402 0.7186,-1.4151 1.7689 -1.6805l 1.0171,-0.2543 c 0.0000,-1.2493 -0.5749,-1.4815 -0.9508 -1.4815c -0.4201,-0.0000 -0.9066,0.1879 -0.9066 0.5307c 0.0000,0.1216 0.0221,0.1879 0.0332 0.2211c 0.0221,0.0442 0.0332,0.1216 0.0332 0.1990c 0.0000,0.1437 -0.1106,0.3648 -0.4312 0.3648c -0.2653,-0.0000 -0.4422,-0.1769 -0.4422 -0.4422c 0.0000,-0.6412 1.0392,-1.2051 1.7468 -1.2051c 0.8071,-0.0000 1.7358,0.3317 1.7358 1.9016v 1.6252 c 0.0000,0.6744 0.0111,0.9619 0.2653 0.9619c 0.2432,-0.0000 0.3096,-0.3096 0.3206 -0.5528l 0.2764,0.0553 c -0.0663,0.8071 -0.4091,1.0282 -0.9729 1.0282ZM 374.7430,174.9088 ZM 375.7269,174.1128 v -2.7529 c 0.0000,-0.5528 -0.0774,-0.6744 -0.2432 -0.6744c -0.1437,-0.0000 -0.2764,0.0111 -0.4643 0.0553l -0.0553,-0.3096 c 0.6965,-0.1216 0.8181,-0.1548 1.1498 -0.3206c 0.1106,-0.0553 0.1990,-0.0884 0.2764 -0.0884h 0.1658 l -0.0332,0.9950 h 0.0332 c 0.2875,-0.4312 0.7739,-0.9950 1.2935 -0.9950c 0.4533,-0.0000 0.6191,0.2211 0.6191 0.5086c 0.0000,0.2875 -0.1879,0.4643 -0.4754 0.4643c -0.2211,-0.0000 -0.3427,-0.0884 -0.4533 -0.1990c -0.0663,-0.0663 -0.1437,-0.0995 -0.2211 -0.0995c -0.1216,-0.0000 -0.3648,0.1990 -0.6302 0.5749c -0.0774,0.0995 -0.1327,0.2432 -0.1327 0.3870v 2.4544 c 0.0000,0.3206 0.1106,0.4865 0.4754 0.4865h 0.3206 c 0.0553,-0.0000 0.0995,0.0332 0.0995 0.0884v 0.2101 l -0.0221,0.0221 c 0.0000,-0.0000 -0.8734,-0.0221 -1.3046 -0.0221c -0.3980,-0.0000 -1.1498,0.0221 -1.1498 0.0221l -0.0111,-0.0221 v -0.2101 c 0.0000,-0.0553 0.0221,-0.0884 0.0774 -0.0884h 0.2101 c 0.3759,-0.0000 0.4754,-0.1658 0.4754 -0.4865ZM 378.5793,174.9088 ZM 382.2720,173.9248 v -2.8635 c -0.2653,-0.4201 -0.5638,-0.6523 -1.0835 -0.6523c -0.2211,-0.0000 -0.6744,0.0332 -1.0282 0.5528c -0.1548,0.2322 -0.3427,0.7076 -0.3427 1.5036c 0.0000,1.4483 0.7518,2.1117 1.3488 2.1117c 0.3648,-0.0000 0.6633,-0.2211 1.1056 -0.6523ZM 382.2720,173.9248 ZM 383.1012,167.1918 v 6.3903 c 0.0000,0.3317 0.0221,0.5086 0.0442 0.5860c 0.0332,0.0995 0.1548,0.1658 0.2432 0.1658c 0.1327,-0.0000 0.3759,-0.0000 0.5417 -0.0332l 0.0442,0.3096 c -0.6412,0.1106 -1.2161,0.2322 -1.4483 0.4312h -0.2653 l 0.0332,-0.7629 c -0.4201,0.4312 -0.8513,0.7629 -1.4151 0.7629c -1.1940,-0.0000 -1.9237,-1.0171 -1.9237 -2.3770c 0.0000,-0.8181 0.2211,-1.5036 0.6965 -1.9790c 0.4422,-0.4201 0.9287,-0.6633 1.6584 -0.6633c 0.2211,-0.0000 0.7076,0.0995 0.9619 0.2432v -1.6915 c 0.0000,-0.6302 -0.0995,-0.8071 -0.3206 -0.8071l -0.3648,0.0442 c -0.0221,-0.0000 -0.0553,-0.0221 -0.0553 -0.0553l -0.0221,-0.2764 c 0.1769,-0.0000 0.5749,-0.0663 0.7629 -0.0995c 0.2101,-0.0442 0.3648,-0.0884 0.5860 -0.1879h 0.2432 Z"/></g><g stroke-linejoin="miter" stroke-opacity="1.0" fill-opacity="0.5" stroke="rgb(255,0,0)" stroke-width="1.4751271131668615" fill="rgb(255,0,0)" stroke-linecap="butt" stroke-miterlimit="10.0"><path d="M 323.1183,172.3273 c 0.0000,-1.2887 -1.0447,-2.3333 -2.3333 -2.3333c -1.2887,-0.0000 -2.3333,1.0447 -2.3333 2.3333c -0.0000,1.2887 1.0447,2.3333 2.3333 2.3333c 1.2887,0.0000 2.3333,-1.0447 2.3333 -2.3333Z"/></g><g stroke-linejoin="miter" stroke-opacity="1.0" fill-opacity="0.0" stroke="rgb(255,0,0)" stroke-width="1.4751271131668615" fill="rgb(0,0,0)" stroke-linecap="butt" stroke-miterlimit="10.0"><path d="M 304.1183,172.3273 h 33.3333 "/></g><g stroke-linejoin="miter" stroke-opacity="1.0" fill-opacity="0.0" stroke="rgb(0,0,0)" stroke-width="1.4751271131668615" fill="rgb(0,0,0)" stroke-linecap="butt" stroke-miterlimit="10.0"><path d="M 33.3333,311.6667 v -233.3333 h 233.3333 v 233.3333 Z"/></g><g stroke-linejoin="miter" stroke-opacity="1.0" fill-opacity="0.0" stroke="rgb(128,128,128)" stroke-width="1.4751271131668615" fill="rgb(0,0,0)" stroke-dashoffset="0.0" stroke-linecap="butt" stroke-miterlimit="10.0" stroke-dasharray="3.333333333333332,3.333333333333332"><path d="M 33.3333,78.3333 h 233.3333 "/></g><g stroke-linejoin="miter" stroke-opacity="1.0" fill-opacity="0.0" stroke="rgb(128,128,128)" stroke-width="1.4751271131668615" fill="rgb(0,0,0)" stroke-dashoffset="0.0" stroke-linecap="butt" stroke-miterlimit="10.0" stroke-dasharray="3.333333333333332,3.333333333333332"><path d="M 33.3333,125.0000 h 233.3333 "/></g><g stroke-linejoin="miter" stroke-opacity="1.0" fill-opacity="0.0" stroke="rgb(128,128,128)" stroke-width="1.4751271131668615" fill="rgb(0,0,0)" stroke-dashoffset="0.0" stroke-linecap="butt" stroke-miterlimit="10.0" stroke-dasharray="3.333333333333332,3.333333333333332"><path d="M 33.3333,171.6667 h 233.3333 "/></g><g stroke-linejoin="miter" stroke-opacity="1.0" fill-opacity="0.0" stroke="rgb(128,128,128)" stroke-width="1.4751271131668615" fill="rgb(0,0,0)" stroke-dashoffset="0.0" stroke-linecap="butt" stroke-miterlimit="10.0" stroke-dasharray="3.333333333333332,3.333333333333332"><path d="M 33.3333,218.3333 h 233.3333 "/></g><g stroke-linejoin="miter" stroke-opacity="1.0" fill-opacity="0.0" stroke="rgb(128,128,128)" stroke-width="1.4751271131668615" fill="rgb(0,0,0)" stroke-dashoffset="0.0" stroke-linecap="butt" stroke-miterlimit="10.0" stroke-dasharray="3.333333333333332,3.333333333333332"><path d="M 33.3333,265.0000 h 233.3333 "/></g><g stroke-linejoin="miter" stroke-opacity="1.0" fill-opacity="0.0" stroke="rgb(128,128,128)" stroke-width="1.4751271131668615" fill="rgb(0,0,0)" stroke-dashoffset="0.0" stroke-linecap="butt" stroke-miterlimit="10.0" stroke-dasharray="3.333333333333332,3.333333333333332"><path d="M 33.3333,311.6667 h 233.3333 "/></g><g stroke-linejoin="miter" stroke-opacity="1.0" fill-opacity="0.0" stroke="rgb(0,0,0)" stroke-width="1.4751271131668615" fill="rgb(0,0,0)" stroke-linecap="butt" stroke-miterlimit="10.0"><path d="M 266.6667,78.3333 h -3.3333 "/></g><g stroke-linejoin="miter" stroke-opacity="1.0" fill-opacity="0.0" stroke="rgb(0,0,0)" stroke-width="1.4751271131668615" fill="rgb(0,0,0)" stroke-linecap="butt" stroke-miterlimit="10.0"><path d="M 266.6667,125.0000 h -3.3333 "/></g><g stroke-linejoin="miter" stroke-opacity="1.0" fill-opacity="0.0" stroke="rgb(0,0,0)" stroke-width="1.4751271131668615" fill="rgb(0,0,0)" stroke-linecap="butt" stroke-miterlimit="10.0"><path d="M 266.6667,171.6667 h -3.3333 "/></g><g stroke-linejoin="miter" stroke-opacity="1.0" fill-opacity="0.0" stroke="rgb(0,0,0)" stroke-width="1.4751271131668615" fill="rgb(0,0,0)" stroke-linecap="butt" stroke-miterlimit="10.0"><path d="M 266.6667,218.3333 h -3.3333 "/></g><g stroke-linejoin="miter" stroke-opacity="1.0" fill-opacity="0.0" stroke="rgb(0,0,0)" stroke-width="1.4751271131668615" fill="rgb(0,0,0)" stroke-linecap="butt" stroke-miterlimit="10.0"><path d="M 266.6667,265.0000 h -3.3333 "/></g><g stroke-linejoin="miter" stroke-opacity="1.0" fill-opacity="0.0" stroke="rgb(0,0,0)" stroke-width="1.4751271131668615" fill="rgb(0,0,0)" stroke-linecap="butt" stroke-miterlimit="10.0"><path d="M 266.6667,311.6667 h -3.3333 "/></g><g stroke-linejoin="miter" stroke-opacity="1.0" fill-opacity="0.0" stroke="rgb(0,0,0)" stroke-width="1.4751271131668615" fill="rgb(0,0,0)" stroke-linecap="butt" stroke-miterlimit="10.0"><path d="M 33.3333,78.3333 h 3.3333 "/></g><g stroke-linejoin="miter" stroke-opacity="1.0" fill-opacity="0.0" stroke="rgb(0,0,0)" stroke-width="1.4751271131668615" fill="rgb(0,0,0)" stroke-linecap="butt" stroke-miterlimit="10.0"><path d="M 33.3333,125.0000 h 3.3333 "/></g><g stroke-linejoin="miter" stroke-opacity="1.0" fill-opacity="0.0" stroke="rgb(0,0,0)" stroke-width="1.4751271131668615" fill="rgb(0,0,0)" stroke-linecap="butt" stroke-miterlimit="10.0"><path d="M 33.3333,171.6667 h 3.3333 "/></g><g stroke-linejoin="miter" stroke-opacity="1.0" fill-opacity="0.0" stroke="rgb(0,0,0)" stroke-width="1.4751271131668615" fill="rgb(0,0,0)" stroke-linecap="butt" stroke-miterlimit="10.0"><path d="M 33.3333,218.3333 h 3.3333 "/></g><g stroke-linejoin="miter" stroke-opacity="1.0" fill-opacity="0.0" stroke="rgb(0,0,0)" stroke-width="1.4751271131668615" fill="rgb(0,0,0)" stroke-linecap="butt" stroke-miterlimit="10.0"><path d="M 33.3333,265.0000 h 3.3333 "/></g><g stroke-linejoin="miter" stroke-opacity="1.0" fill-opacity="0.0" stroke="rgb(0,0,0)" stroke-width="1.4751271131668615" fill="rgb(0,0,0)" stroke-linecap="butt" stroke-miterlimit="10.0"><path d="M 33.3333,311.6667 h 3.3333 "/></g><g stroke-linejoin="miter" stroke-opacity="1.0" fill-opacity="1.0" stroke="rgb(0,0,0)" stroke-width="0.0" fill="rgb(0,0,0)" stroke-linecap="butt" stroke-miterlimit="10.0"><path d="M 17.4240,81.4621 ZM 19.5025,76.1885 c -0.2101,-0.0000 -0.6965,0.1990 -0.9397 0.3096l -0.1327,-0.3427 c 0.9729,-0.4533 1.3488,-0.6855 1.9016 -1.0835h 0.2101 v 5.5611 c 0.0000,0.3980 0.0553,0.5086 0.4201 0.5086h 0.5749 c 0.0332,-0.0000 0.0884,0.0221 0.0884 0.0884v 0.2432 l -1.5146,-0.0221 l -1.5368,0.0221 v -0.2432 c 0.0111,-0.0332 0.0221,-0.0884 0.0884 -0.0884h 0.6633 c 0.4201,-0.0000 0.4201,-0.1879 0.4201 -0.5086v -3.8032 c 0.0000,-0.3759 0.0000,-0.6412 -0.2432 -0.6412ZM 22.2664,81.4621 ZM 24.6877,75.4588 c -0.4754,-0.0000 -1.1719,0.4643 -1.1719 3.0404c 0.0000,0.9066 0.1658,2.7308 1.1388 2.7308c 0.1879,-0.0000 0.7186,-0.1216 0.9508 -0.9840c 0.1437,-0.5307 0.2211,-1.1940 0.2211 -2.1559c 0.0000,-1.4041 -0.3538,-2.1891 -0.6744 -2.4655c -0.1216,-0.1106 -0.2875,-0.1658 -0.4643 -0.1658ZM 24.6877,75.4588 ZM 24.6434,81.5948 c -1.1830,-0.0000 -1.9790,-1.5146 -1.9790 -3.2062c 0.0000,-2.0674 0.9840,-3.3167 2.0232 -3.3167c 0.4754,-0.0000 0.9508,0.2985 1.2714 0.7297c 0.4643,0.6191 0.7076,1.4483 0.7076 2.4876c 0.0000,2.4544 -1.2161,3.3057 -2.0232 3.3057Z"/></g><g stroke-linejoin="miter" stroke-opacity="1.0" fill-opacity="1.0" stroke="rgb(0,0,0)" stroke-width="0.0" fill="rgb(0,0,0)" stroke-linecap="butt" stroke-miterlimit="10.0"><path d="M 22.2886,128.1288 ZM 24.7430,122.0039 c -0.6302,-0.0000 -1.0392,0.4975 -1.0392 0.9840c 0.0000,0.3206 0.1327,0.7076 0.7960 1.1388l 0.3206,0.1990 c 0.2875,-0.2101 0.9619,-0.7186 0.9619 -1.2825c 0.0000,-0.4865 -0.3538,-1.0392 -1.0392 -1.0392ZM 24.7430,122.0039 ZM 26.4345,123.0542 c 0.0000,0.6744 -0.7629,1.2051 -1.2272 1.5146l 0.6412,0.4201 c 0.5417,0.3538 0.8181,0.8402 0.8181 1.4483c 0.0000,0.7960 -0.6523,1.8242 -2.0232 1.8242c -1.1056,-0.0000 -1.8684,-0.5860 -1.8684 -1.6584c 0.0000,-0.4091 0.1769,-0.8845 0.6081 -1.2604c 0.2653,-0.2322 0.4975,-0.4312 0.7629 -0.6302l -0.1879,-0.1106 c -0.6412,-0.3980 -0.9619,-0.8292 -0.9619 -1.4151c 0.0000,-0.8071 0.7297,-1.4483 1.8021 -1.4483c 1.0282,-0.0000 1.6363,0.5638 1.6363 1.3156ZM 26.4345,123.0542 ZM 24.6656,127.9519 c 0.4754,-0.0000 1.3046,-0.2543 1.3046 -1.3046c 0.0000,-0.4975 -0.3096,-0.9950 -0.9619 -1.3930l -0.4865,-0.2985 c -0.8955,0.5970 -1.0945,1.3378 -1.0945 1.6473c 0.0000,0.9397 0.7629,1.3488 1.2383 1.3488Z"/></g><g stroke-linejoin="miter" stroke-opacity="1.0" fill-opacity="1.0" stroke="rgb(0,0,0)" stroke-width="0.0" fill="rgb(0,0,0)" stroke-linecap="butt" stroke-miterlimit="10.0"><path d="M 22.2222,174.7955 ZM 23.5047,171.8988 c -0.0111,0.1106 -0.0111,0.2764 -0.0111 0.3870c 0.0000,1.8574 0.8292,2.3217 1.3820 2.3217c 0.5086,-0.0000 1.0503,-0.4754 1.0503 -1.6252c 0.0000,-0.5196 -0.2653,-1.5810 -1.3267 -1.5810c -0.2322,-0.0000 -0.6523,0.0221 -1.0945 0.4975ZM 23.5047,171.8988 ZM 26.4013,168.6926 c -0.7186,0.0663 -1.3378,0.2543 -1.8684 0.7739c -0.5086,0.4975 -0.8734,1.2383 -0.9950 2.1227c 0.2543,-0.3096 0.8624,-0.5417 1.2825 -0.5417c 1.6363,-0.0000 1.8463,1.3488 1.8463 1.8574c 0.0000,0.7518 -0.3759,2.0232 -1.9016 2.0232c -0.8071,-0.0000 -2.0343,-0.4754 -2.0343 -2.6755c 0.0000,-1.0171 0.3427,-2.0122 1.1056 -2.7750c 0.7076,-0.7186 1.4483,-1.0171 2.5318 -1.0724Z"/></g><g stroke-linejoin="miter" stroke-opacity="1.0" fill-opacity="1.0" stroke="rgb(0,0,0)" stroke-width="0.0" fill="rgb(0,0,0)" stroke-linecap="butt" stroke-miterlimit="10.0"><path d="M 22.1669,221.5229 ZM 25.0193,217.5981 c 0.0000,-0.0774 0.0111,-0.1658 0.1106 -0.2211c 0.1216,-0.0884 0.3206,-0.1879 0.4865 -0.1879c 0.1437,-0.0000 0.1548,0.1216 0.1548 0.3427v 1.7800 h 0.8955 l -0.0663,0.5196 h -0.8292 v 0.9176 c 0.0000,0.3096 0.0442,0.4643 0.3648 0.4643h 0.2985 c 0.0663,-0.0000 0.0774,0.0553 0.0774 0.0774v 0.2432 c 0.0000,-0.0000 -0.7076,-0.0221 -1.1719 -0.0221c -0.4201,-0.0000 -1.0724,0.0221 -1.0724 0.0221v -0.2432 c 0.0000,-0.0221 0.0111,-0.0774 0.0774 -0.0774h 0.2985 c 0.3427,-0.0000 0.3759,-0.1437 0.3759 -0.4643v -0.9176 h -2.1669 c -0.0442,-0.0000 -0.0663,-0.0221 -0.0995 -0.0663l -0.0884,-0.1216 l -0.1327,-0.2322 c -0.0111,-0.0000 -0.0111,-0.0111 -0.0111 -0.0221c 0.0000,-0.0111 0.0111,-0.0221 0.0221 -0.0332c 0.7186,-0.7960 1.9900,-3.2615 2.3881 -4.1680c 0.0111,-0.0442 0.0332,-0.0553 0.0774 -0.0553c 0.0111,-0.0000 0.2543,0.0995 0.3870 0.1216c -0.4975,1.3378 -1.3156,2.7750 -2.1227 4.0575h 1.7468 v -1.7137 Z"/></g><g stroke-linejoin="miter" stroke-opacity="1.0" fill-opacity="1.0" stroke="rgb(0,0,0)" stroke-width="0.0" fill="rgb(0,0,0)" stroke-linecap="butt" stroke-miterlimit="10.0"><path d="M 22.3991,268.1951 ZM 23.0404,263.2974 c 0.0000,-0.6302 0.6081,-1.4925 1.7689 -1.4925c 0.8513,-0.0000 1.8463,0.3206 1.8463 1.5920c 0.0000,0.8402 -0.4312,1.2604 -1.0282 1.8353l -1.0503,1.0171 c -0.0553,0.0553 -0.7960,0.7850 -0.7960 1.3046h 1.8795 c 0.3759,-0.0000 0.5749,-0.1879 0.7297 -0.7960l 0.2764,0.0442 l -0.2211,1.3930 h -3.4163 c 0.0000,-0.6191 0.0995,-1.0945 1.1277 -2.1448l 0.7739,-0.7629 c 0.6191,-0.6302 0.8734,-1.1719 0.8734 -1.8463c 0.0000,-1.0061 -0.6855,-1.2935 -1.0614 -1.2935c -0.7629,-0.0000 -0.9729,0.3980 -0.9729 0.6633c 0.0000,0.0884 0.0221,0.1769 0.0442 0.2543c 0.0221,0.0774 0.0442,0.1548 0.0442 0.2432c 0.0000,0.2875 -0.2211,0.3980 -0.3980 0.3980c -0.2432,-0.0000 -0.4201,-0.1879 -0.4201 -0.4091Z"/></g><g stroke-linejoin="miter" stroke-opacity="1.0" fill-opacity="1.0" stroke="rgb(0,0,0)" stroke-width="0.0" fill="rgb(0,0,0)" stroke-linecap="butt" stroke-miterlimit="10.0"><path d="M 22.2664,314.7955 ZM 24.6877,308.7922 c -0.4754,-0.0000 -1.1719,0.4643 -1.1719 3.0404c 0.0000,0.9066 0.1658,2.7308 1.1388 2.7308c 0.1879,-0.0000 0.7186,-0.1216 0.9508 -0.9840c 0.1437,-0.5307 0.2211,-1.1940 0.2211 -2.1559c 0.0000,-1.4041 -0.3538,-2.1891 -0.6744 -2.4655c -0.1216,-0.1106 -0.2875,-0.1658 -0.4643 -0.1658ZM 24.6877,308.7922 ZM 24.6434,314.9281 c -1.1830,-0.0000 -1.9790,-1.5146 -1.9790 -3.2062c 0.0000,-2.0674 0.9840,-3.3167 2.0232 -3.3167c 0.4754,-0.0000 0.9508,0.2985 1.2714 0.7297c 0.4643,0.6191 0.7076,1.4483 0.7076 2.4876c 0.0000,2.4544 -1.2161,3.3057 -2.0232 3.3057Z"/></g><g stroke-linejoin="miter" stroke-opacity="1.0" fill-opacity="0.0" stroke="rgb(128,128,128)" stroke-width="1.4751271131668615" fill="rgb(0,0,0)" stroke-dashoffset="0.0" stroke-linecap="butt" stroke-miterlimit="10.0" stroke-dasharray="3.333333333333332,3.333333333333332"><path d="M 266.6667,311.6667 v -233.3333 "/></g><g stroke-linejoin="miter" stroke-opacity="1.0" fill-opacity="0.0" stroke="rgb(128,128,128)" stroke-width="1.4751271131668615" fill="rgb(0,0,0)" stroke-dashoffset="0.0" stroke-linecap="butt" stroke-miterlimit="10.0" stroke-dasharray="3.333333333333332,3.333333333333332"><path d="M 220.0000,311.6667 v -233.3333 "/></g><g stroke-linejoin="miter" stroke-opacity="1.0" fill-opacity="0.0" stroke="rgb(128,128,128)" stroke-width="1.4751271131668615" fill="rgb(0,0,0)" stroke-dashoffset="0.0" stroke-linecap="butt" stroke-miterlimit="10.0" stroke-dasharray="3.333333333333332,3.333333333333332"><path d="M 173.3333,311.6667 v -233.3333 "/></g><g stroke-linejoin="miter" stroke-opacity="1.0" fill-opacity="0.0" stroke="rgb(128,128,128)" stroke-width="1.4751271131668615" fill="rgb(0,0,0)" stroke-dashoffset="0.0" stroke-linecap="butt" stroke-miterlimit="10.0" stroke-dasharray="3.333333333333332,3.333333333333332"><path d="M 126.6667,311.6667 v -233.3333 "/></g><g stroke-linejoin="miter" stroke-opacity="1.0" fill-opacity="0.0" stroke="rgb(128,128,128)" stroke-width="1.4751271131668615" fill="rgb(0,0,0)" stroke-dashoffset="0.0" stroke-linecap="butt" stroke-miterlimit="10.0" stroke-dasharray="3.333333333333332,3.333333333333332"><path d="M 80.0000,311.6667 v -233.3333 "/></g><g stroke-linejoin="miter" stroke-opacity="1.0" fill-opacity="0.0" stroke="rgb(128,128,128)" stroke-width="1.4751271131668615" fill="rgb(0,0,0)" stroke-dashoffset="0.0" stroke-linecap="butt" stroke-miterlimit="10.0" stroke-dasharray="3.333333333333332,3.333333333333332"><path d="M 33.3333,311.6667 v -233.3333 "/></g><g stroke-linejoin="miter" stroke-opacity="1.0" fill-opacity="0.0" stroke="rgb(0,0,0)" stroke-width="1.4751271131668615" fill="rgb(0,0,0)" stroke-linecap="butt" stroke-miterlimit="10.0"><path d="M 266.6667,78.3333 v 3.3333 "/></g><g stroke-linejoin="miter" stroke-opacity="1.0" fill-opacity="0.0" stroke="rgb(0,0,0)" stroke-width="1.4751271131668615" fill="rgb(0,0,0)" stroke-linecap="butt" stroke-miterlimit="10.0"><path d="M 220.0000,78.3333 v 3.3333 "/></g><g stroke-linejoin="miter" stroke-opacity="1.0" fill-opacity="0.0" stroke="rgb(0,0,0)" stroke-width="1.4751271131668615" fill="rgb(0,0,0)" stroke-linecap="butt" stroke-miterlimit="10.0"><path d="M 173.3333,78.3333 v 3.3333 "/></g><g stroke-linejoin="miter" stroke-opacity="1.0" fill-opacity="0.0" stroke="rgb(0,0,0)" stroke-width="1.4751271131668615" fill="rgb(0,0,0)" stroke-linecap="butt" stroke-miterlimit="10.0"><path d="M 126.6667,78.3333 v 3.3333 "/></g><g stroke-linejoin="miter" stroke-opacity="1.0" fill-opacity="0.0" stroke="rgb(0,0,0)" stroke-width="1.4751271131668615" fill="rgb(0,0,0)" stroke-linecap="butt" stroke-miterlimit="10.0"><path d="M 80.0000,78.3333 v 3.3333 "/></g><g stroke-linejoin="miter" stroke-opacity="1.0" fill-opacity="0.0" stroke="rgb(0,0,0)" stroke-width="1.4751271131668615" fill="rgb(0,0,0)" stroke-linecap="butt" stroke-miterlimit="10.0"><path d="M 33.3333,78.3333 v 3.3333 "/></g><g stroke-linejoin="miter" stroke-opacity="1.0" fill-opacity="0.0" stroke="rgb(0,0,0)" stroke-width="1.4751271131668615" fill="rgb(0,0,0)" stroke-linecap="butt" stroke-miterlimit="10.0"><path d="M 266.6667,311.6667 v -3.3333 "/></g><g stroke-linejoin="miter" stroke-opacity="1.0" fill-opacity="0.0" stroke="rgb(0,0,0)" stroke-width="1.4751271131668615" fill="rgb(0,0,0)" stroke-linecap="butt" stroke-miterlimit="10.0"><path d="M 220.0000,311.6667 v -3.3333 "/></g><g stroke-linejoin="miter" stroke-opacity="1.0" fill-opacity="0.0" stroke="rgb(0,0,0)" stroke-width="1.4751271131668615" fill="rgb(0,0,0)" stroke-linecap="butt" stroke-miterlimit="10.0"><path d="M 173.3333,311.6667 v -3.3333 "/></g><g stroke-linejoin="miter" stroke-opacity="1.0" fill-opacity="0.0" stroke="rgb(0,0,0)" stroke-width="1.4751271131668615" fill="rgb(0,0,0)" stroke-linecap="butt" stroke-miterlimit="10.0"><path d="M 126.6667,311.6667 v -3.3333 "/></g><g stroke-linejoin="miter" stroke-opacity="1.0" fill-opacity="0.0" stroke="rgb(0,0,0)" stroke-width="1.4751271131668615" fill="rgb(0,0,0)" stroke-linecap="butt" stroke-miterlimit="10.0"><path d="M 80.0000,311.6667 v -3.3333 "/></g><g stroke-linejoin="miter" stroke-opacity="1.0" fill-opacity="0.0" stroke="rgb(0,0,0)" stroke-width="1.4751271131668615" fill="rgb(0,0,0)" stroke-linecap="butt" stroke-miterlimit="10.0"><path d="M 33.3333,311.6667 v -3.3333 "/></g><g stroke-linejoin="miter" stroke-opacity="1.0" fill-opacity="1.0" stroke="rgb(0,0,0)" stroke-width="0.0" fill="rgb(0,0,0)" stroke-linecap="butt" stroke-miterlimit="10.0"><path d="M 261.5423,324.7955 ZM 263.6208,319.5218 c -0.2101,-0.0000 -0.6965,0.1990 -0.9397 0.3096l -0.1327,-0.3427 c 0.9729,-0.4533 1.3488,-0.6855 1.9016 -1.0835h 0.2101 v 5.5611 c 0.0000,0.3980 0.0553,0.5086 0.4201 0.5086h 0.5749 c 0.0332,-0.0000 0.0884,0.0221 0.0884 0.0884v 0.2432 l -1.5146,-0.0221 l -1.5368,0.0221 v -0.2432 c 0.0111,-0.0332 0.0221,-0.0884 0.0884 -0.0884h 0.6633 c 0.4201,-0.0000 0.4201,-0.1879 0.4201 -0.5086v -3.8032 c 0.0000,-0.3759 0.0000,-0.6412 -0.2432 -0.6412ZM 266.3847,324.7955 ZM 268.8060,318.7922 c -0.4754,-0.0000 -1.1719,0.4643 -1.1719 3.0404c 0.0000,0.9066 0.1658,2.7308 1.1388 2.7308c 0.1879,-0.0000 0.7186,-0.1216 0.9508 -0.9840c 0.1437,-0.5307 0.2211,-1.1940 0.2211 -2.1559c 0.0000,-1.4041 -0.3538,-2.1891 -0.6744 -2.4655c -0.1216,-0.1106 -0.2875,-0.1658 -0.4643 -0.1658ZM 268.8060,318.7922 ZM 268.7617,324.9281 c -1.1830,-0.0000 -1.9790,-1.5146 -1.9790 -3.2062c 0.0000,-2.0674 0.9840,-3.3167 2.0232 -3.3167c 0.4754,-0.0000 0.9508,0.2985 1.2714 0.7297c 0.4643,0.6191 0.7076,1.4483 0.7076 2.4876c 0.0000,2.4544 -1.2161,3.3057 -2.0232 3.3057Z"/></g><g stroke-linejoin="miter" stroke-opacity="1.0" fill-opacity="1.0" stroke="rgb(0,0,0)" stroke-width="0.0" fill="rgb(0,0,0)" stroke-linecap="butt" stroke-miterlimit="10.0"><path d="M 217.5677,324.7955 ZM 220.0221,318.6705 c -0.6302,-0.0000 -1.0392,0.4975 -1.0392 0.9840c 0.0000,0.3206 0.1327,0.7076 0.7960 1.1388l 0.3206,0.1990 c 0.2875,-0.2101 0.9619,-0.7186 0.9619 -1.2825c 0.0000,-0.4865 -0.3538,-1.0392 -1.0392 -1.0392ZM 220.0221,318.6705 ZM 221.7137,319.7208 c 0.0000,0.6744 -0.7629,1.2051 -1.2272 1.5146l 0.6412,0.4201 c 0.5417,0.3538 0.8181,0.8402 0.8181 1.4483c 0.0000,0.7960 -0.6523,1.8242 -2.0232 1.8242c -1.1056,-0.0000 -1.8684,-0.5860 -1.8684 -1.6584c 0.0000,-0.4091 0.1769,-0.8845 0.6081 -1.2604c 0.2653,-0.2322 0.4975,-0.4312 0.7629 -0.6302l -0.1879,-0.1106 c -0.6412,-0.3980 -0.9619,-0.8292 -0.9619 -1.4151c 0.0000,-0.8071 0.7297,-1.4483 1.8021 -1.4483c 1.0282,-0.0000 1.6363,0.5638 1.6363 1.3156ZM 221.7137,319.7208 ZM 219.9447,324.6186 c 0.4754,-0.0000 1.3046,-0.2543 1.3046 -1.3046c 0.0000,-0.4975 -0.3096,-0.9950 -0.9619 -1.3930l -0.4865,-0.2985 c -0.8955,0.5970 -1.0945,1.3378 -1.0945 1.6473c 0.0000,0.9397 0.7629,1.3488 1.2383 1.3488Z"/></g><g stroke-linejoin="miter" stroke-opacity="1.0" fill-opacity="1.0" stroke="rgb(0,0,0)" stroke-width="0.0" fill="rgb(0,0,0)" stroke-linecap="butt" stroke-miterlimit="10.0"><path d="M 170.8568,324.7955 ZM 172.1393,321.8988 c -0.0111,0.1106 -0.0111,0.2764 -0.0111 0.3870c 0.0000,1.8574 0.8292,2.3217 1.3820 2.3217c 0.5086,-0.0000 1.0503,-0.4754 1.0503 -1.6252c 0.0000,-0.5196 -0.2653,-1.5810 -1.3267 -1.5810c -0.2322,-0.0000 -0.6523,0.0221 -1.0945 0.4975ZM 172.1393,321.8988 ZM 175.0359,318.6926 c -0.7186,0.0663 -1.3378,0.2543 -1.8684 0.7739c -0.5086,0.4975 -0.8734,1.2383 -0.9950 2.1227c 0.2543,-0.3096 0.8624,-0.5417 1.2825 -0.5417c 1.6363,-0.0000 1.8463,1.3488 1.8463 1.8574c 0.0000,0.7518 -0.3759,2.0232 -1.9016 2.0232c -0.8071,-0.0000 -2.0343,-0.4754 -2.0343 -2.6755c 0.0000,-1.0171 0.3427,-2.0122 1.1056 -2.7750c 0.7076,-0.7186 1.4483,-1.0171 2.5318 -1.0724Z"/></g><g stroke-linejoin="miter" stroke-opacity="1.0" fill-opacity="1.0" stroke="rgb(0,0,0)" stroke-width="0.0" fill="rgb(0,0,0)" stroke-linecap="butt" stroke-miterlimit="10.0"><path d="M 124.2399,324.8563 ZM 127.0923,320.9315 c 0.0000,-0.0774 0.0111,-0.1658 0.1106 -0.2211c 0.1216,-0.0884 0.3206,-0.1879 0.4865 -0.1879c 0.1437,-0.0000 0.1548,0.1216 0.1548 0.3427v 1.7800 h 0.8955 l -0.0663,0.5196 h -0.8292 v 0.9176 c 0.0000,0.3096 0.0442,0.4643 0.3648 0.4643h 0.2985 c 0.0663,-0.0000 0.0774,0.0553 0.0774 0.0774v 0.2432 c 0.0000,-0.0000 -0.7076,-0.0221 -1.1719 -0.0221c -0.4201,-0.0000 -1.0724,0.0221 -1.0724 0.0221v -0.2432 c 0.0000,-0.0221 0.0111,-0.0774 0.0774 -0.0774h 0.2985 c 0.3427,-0.0000 0.3759,-0.1437 0.3759 -0.4643v -0.9176 h -2.1669 c -0.0442,-0.0000 -0.0663,-0.0221 -0.0995 -0.0663l -0.0884,-0.1216 l -0.1327,-0.2322 c -0.0111,-0.0000 -0.0111,-0.0111 -0.0111 -0.0221c 0.0000,-0.0111 0.0111,-0.0221 0.0221 -0.0332c 0.7186,-0.7960 1.9900,-3.2615 2.3881 -4.1680c 0.0111,-0.0442 0.0332,-0.0553 0.0774 -0.0553c 0.0111,-0.0000 0.2543,0.0995 0.3870 0.1216c -0.4975,1.3378 -1.3156,2.7750 -2.1227 4.0575h 1.7468 v -1.7137 Z"/></g><g stroke-linejoin="miter" stroke-opacity="1.0" fill-opacity="1.0" stroke="rgb(0,0,0)" stroke-width="0.0" fill="rgb(0,0,0)" stroke-linecap="butt" stroke-miterlimit="10.0"><path d="M 77.5511,324.8618 ZM 78.1924,319.9641 c 0.0000,-0.6302 0.6081,-1.4925 1.7689 -1.4925c 0.8513,-0.0000 1.8463,0.3206 1.8463 1.5920c 0.0000,0.8402 -0.4312,1.2604 -1.0282 1.8353l -1.0503,1.0171 c -0.0553,0.0553 -0.7960,0.7850 -0.7960 1.3046h 1.8795 c 0.3759,-0.0000 0.5749,-0.1879 0.7297 -0.7960l 0.2764,0.0442 l -0.2211,1.3930 h -3.4163 c 0.0000,-0.6191 0.0995,-1.0945 1.1277 -2.1448l 0.7739,-0.7629 c 0.6191,-0.6302 0.8734,-1.1719 0.8734 -1.8463c 0.0000,-1.0061 -0.6855,-1.2935 -1.0614 -1.2935c -0.7629,-0.0000 -0.9729,0.3980 -0.9729 0.6633c 0.0000,0.0884 0.0221,0.1769 0.0442 0.2543c 0.0221,0.0774 0.0442,0.1548 0.0442 0.2432c 0.0000,0.2875 -0.2211,0.3980 -0.3980 0.3980c -0.2432,-0.0000 -0.4201,-0.1879 -0.4201 -0.4091Z"/></g><g stroke-linejoin="miter" stroke-opacity="1.0" fill-opacity="1.0" stroke="rgb(0,0,0)" stroke-width="0.0" fill="rgb(0,0,0)" stroke-linecap="butt" stroke-miterlimit="10.0"><path d="M 30.9342,324.7955 ZM 33.3554,318.7922 c -0.4754,-0.0000 -1.1719,0.4643 -1.1719 3.0404c 0.0000,0.9066 0.1658,2.7308 1.1388 2.7308c 0.1879,-0.0000 0.7186,-0.1216 0.9508 -0.9840c 0.1437,-0.5307 0.2211,-1.1940 0.2211 -2.1559c 0.0000,-1.4041 -0.3538,-2.1891 -0.6744 -2.4655c -0.1216,-0.1106 -0.2875,-0.1658 -0.4643 -0.1658ZM 33.3554,318.7922 ZM 33.3112,324.9281 c -1.1830,-0.0000 -1.9790,-1.5146 -1.9790 -3.2062c 0.0000,-2.0674 0.9840,-3.3167 2.0232 -3.3167c 0.4754,-0.0000 0.9508,0.2985 1.2714 0.7297c 0.4643,0.6191 0.7076,1.4483 0.7076 2.4876c 0.0000,2.4544 -1.2161,3.3057 -2.0232 3.3057Z"/></g><g stroke-linejoin="miter" stroke-opacity="1.0" fill-opacity="0.0" stroke="rgb(255,0,0)" stroke-width="1.4751271131668615" fill="rgb(0,0,0)" stroke-dashoffset="0.0" stroke-linecap="butt" stroke-miterlimit="10.0" stroke-dasharray="3.333333333333332,3.333333333333332,0.6666666666666664,0.6666666666666664,0.6666666666666664,3.333333333333332"><path d="M 33.3333,125.0000 l 11.6667,-11.1866 l 11.6667,-8.4477 l 11.6667,-3.6406 l 11.6667,2.0579 l 11.6667,7.2526 l 11.6667,10.6715 l 11.6667,11.4777 l 11.6667,9.4738 l 11.6667,5.1503 l 11.6667,-0.4341 l 11.6667,-5.9123 l 11.6667,-9.9429 l 11.6667,-11.5392 l 11.6667,-10.3102 l 11.6667,-6.5570 l 11.6667,-1.1984 l 11.6667,4.4537 l 11.6667,9.0153 l 11.6667,11.3696 l 11.6667,10.9403 "/></g><g stroke-linejoin="miter" stroke-opacity="1.0" fill-opacity="0.0" stroke="rgb(255,0,0)" stroke-width="1.4751271131668615" fill="rgb(0,0,0)" stroke-linecap="butt" stroke-miterlimit="10.0"><path d="M 269.0000,140.0272 l -4.6667,-4.6667 M 269.0000,135.3605 l -4.6667,4.6667 "/></g><g stroke-linejoin="miter" stroke-opacity="1.0" fill-opacity="0.0" stroke="rgb(255,0,0)" stroke-width="1.4751271131668615" fill="rgb(0,0,0)" stroke-linecap="butt" stroke-miterlimit="10.0"><path d="M 257.3333,129.0869 l -4.6667,-4.6667 M 257.3333,124.4202 l -4.6667,4.6667 "/></g><g stroke-linejoin="miter" stroke-opacity="1.0" fill-opacity="0.0" stroke="rgb(255,0,0)" stroke-width="1.4751271131668615" fill="rgb(0,0,0)" stroke-linecap="butt" stroke-miterlimit="10.0"><path d="M 245.6667,117.7172 l -4.6667,-4.6667 M 245.6667,113.0506 l -4.6667,4.6667 "/></g><g stroke-linejoin="miter" stroke-opacity="1.0" fill-opacity="0.0" stroke="rgb(255,0,0)" stroke-width="1.4751271131668615" fill="rgb(0,0,0)" stroke-linecap="butt" stroke-miterlimit="10.0"><path d="M 234.0000,108.7020 l -4.6667,-4.6667 M 234.0000,104.0353 l -4.6667,4.6667 "/></g><g stroke-linejoin="miter" stroke-opacity="1.0" fill-opacity="0.0" stroke="rgb(255,0,0)" stroke-width="1.4751271131668615" fill="rgb(0,0,0)" stroke-linecap="butt" stroke-miterlimit="10.0"><path d="M 222.3333,104.2483 l -4.6667,-4.6667 M 222.3333,99.5816 l -4.6667,4.6667 "/></g><g stroke-linejoin="miter" stroke-opacity="1.0" fill-opacity="0.0" stroke="rgb(255,0,0)" stroke-width="1.4751271131668615" fill="rgb(0,0,0)" stroke-linecap="butt" stroke-miterlimit="10.0"><path d="M 210.6667,105.4467 l -4.6667,-4.6667 M 210.6667,100.7800 l -4.6667,4.6667 "/></g><g stroke-linejoin="miter" stroke-opacity="1.0" fill-opacity="0.0" stroke="rgb(255,0,0)" stroke-width="1.4751271131668615" fill="rgb(0,0,0)" stroke-linecap="butt" stroke-miterlimit="10.0"><path d="M 199.0000,112.0036 l -4.6667,-4.6667 M 199.0000,107.3370 l -4.6667,4.6667 "/></g><g stroke-linejoin="miter" stroke-opacity="1.0" fill-opacity="0.0" stroke="rgb(255,0,0)" stroke-width="1.4751271131668615" fill="rgb(0,0,0)" stroke-linecap="butt" stroke-miterlimit="10.0"><path d="M 187.3333,122.3139 l -4.6667,-4.6667 M 187.3333,117.6472 l -4.6667,4.6667 "/></g><g stroke-linejoin="miter" stroke-opacity="1.0" fill-opacity="0.0" stroke="rgb(255,0,0)" stroke-width="1.4751271131668615" fill="rgb(0,0,0)" stroke-linecap="butt" stroke-miterlimit="10.0"><path d="M 175.6667,133.8530 l -4.6667,-4.6667 M 175.6667,129.1864 l -4.6667,4.6667 "/></g><g stroke-linejoin="miter" stroke-opacity="1.0" fill-opacity="0.0" stroke="rgb(255,0,0)" stroke-width="1.4751271131668615" fill="rgb(0,0,0)" stroke-linecap="butt" stroke-miterlimit="10.0"><path d="M 164.0000,143.7959 l -4.6667,-4.6667 M 164.0000,139.1293 l -4.6667,4.6667 "/></g><g stroke-linejoin="miter" stroke-opacity="1.0" fill-opacity="0.0" stroke="rgb(255,0,0)" stroke-width="1.4751271131668615" fill="rgb(0,0,0)" stroke-linecap="butt" stroke-miterlimit="10.0"><path d="M 152.3333,149.7082 l -4.6667,-4.6667 M 152.3333,145.0416 l -4.6667,4.6667 "/></g><g stroke-linejoin="miter" stroke-opacity="1.0" fill-opacity="0.0" stroke="rgb(255,0,0)" stroke-width="1.4751271131668615" fill="rgb(0,0,0)" stroke-linecap="butt" stroke-miterlimit="10.0"><path d="M 140.6667,150.1424 l -4.6667,-4.6667 M 140.6667,145.4757 l -4.6667,4.6667 "/></g><g stroke-linejoin="miter" stroke-opacity="1.0" fill-opacity="0.0" stroke="rgb(255,0,0)" stroke-width="1.4751271131668615" fill="rgb(0,0,0)" stroke-linecap="butt" stroke-miterlimit="10.0"><path d="M 129.0000,144.9921 l -4.6667,-4.6667 M 129.0000,140.3254 l -4.6667,4.6667 "/></g><g stroke-linejoin="miter" stroke-opacity="1.0" fill-opacity="0.0" stroke="rgb(255,0,0)" stroke-width="1.4751271131668615" fill="rgb(0,0,0)" stroke-linecap="butt" stroke-miterlimit="10.0"><path d="M 117.3333,135.5183 l -4.6667,-4.6667 M 117.3333,130.8516 l -4.6667,4.6667 "/></g><g stroke-linejoin="miter" stroke-opacity="1.0" fill-opacity="0.0" stroke="rgb(255,0,0)" stroke-width="1.4751271131668615" fill="rgb(0,0,0)" stroke-linecap="butt" stroke-miterlimit="10.0"><path d="M 105.6667,124.0405 l -4.6667,-4.6667 M 105.6667,119.3739 l -4.6667,4.6667 "/></g><g stroke-linejoin="miter" stroke-opacity="1.0" fill-opacity="0.0" stroke="rgb(255,0,0)" stroke-width="1.4751271131668615" fill="rgb(0,0,0)" stroke-linecap="butt" stroke-miterlimit="10.0"><path d="M 94.0000,113.3690 l -4.6667,-4.6667 M 94.0000,108.7023 l -4.6667,4.6667 "/></g><g stroke-linejoin="miter" stroke-opacity="1.0" fill-opacity="0.0" stroke="rgb(255,0,0)" stroke-width="1.4751271131668615" fill="rgb(0,0,0)" stroke-linecap="butt" stroke-miterlimit="10.0"><path d="M 82.3333,106.1164 l -4.6667,-4.6667 M 82.3333,101.4497 l -4.6667,4.6667 "/></g><g stroke-linejoin="miter" stroke-opacity="1.0" fill-opacity="0.0" stroke="rgb(255,0,0)" stroke-width="1.4751271131668615" fill="rgb(0,0,0)" stroke-linecap="butt" stroke-miterlimit="10.0"><path d="M 70.6667,104.0585 l -4.6667,-4.6667 M 70.6667,99.3918 l -4.6667,4.6667 "/></g><g stroke-linejoin="miter" stroke-opacity="1.0" fill-opacity="0.0" stroke="rgb(255,0,0)" stroke-width="1.4751271131668615" fill="rgb(0,0,0)" stroke-linecap="butt" stroke-miterlimit="10.0"><path d="M 59.0000,107.6990 l -4.6667,-4.6667 M 59.0000,103.0323 l -4.6667,4.6667 "/></g><g stroke-linejoin="miter" stroke-opacity="1.0" fill-opacity="0.0" stroke="rgb(255,0,0)" stroke-width="1.4751271131668615" fill="rgb(0,0,0)" stroke-linecap="butt" stroke-miterlimit="10.0"><path d="M 47.3333,116.1467 l -4.6667,-4.6667 M 47.3333,111.4801 l -4.6667,4.6667 "/></g><g stroke-linejoin="miter" stroke-opacity="1.0" fill-opacity="0.0" stroke="rgb(255,0,0)" stroke-width="1.4751271131668615" fill="rgb(0,0,0)" stroke-linecap="butt" stroke-miterlimit="10.0"><path d="M 35.6667,127.3333 l -4.6667,-4.6667 M 35.6667,122.6667 l -4.6667,4.6667 "/></g><g stroke-linejoin="miter" stroke-opacity="1.0" fill-opacity="0.0" stroke="rgb(165,42,42)" stroke-width="1.4751271131668615" fill="rgb(0,0,0)" stroke-dashoffset="0.0" stroke-linecap="butt" stroke-miterlimit="10.0" stroke-dasharray="3.333333333333332,3.333333333333332,0.9999999999999996,3.333333333333332"><path d="M 80.0000,218.3333 l 46.6667,46.6667 l 23.3333,-46.6667 l 116.6667,-23.3333 "/></g><g stroke-linejoin="miter" stroke-opacity="1.0" fill-opacity="0.5" stroke="rgb(165,42,42)" stroke-width="1.4751271131668615" fill="rgb(165,42,42)" stroke-linecap="butt" stroke-miterlimit="10.0"><path d="M 268.3333,197.2940 l 1.0301,-3.1702 l -2.6967,-1.9593 l -2.6967,1.9593 l 1.0301,3.1702 Z"/></g><g stroke-linejoin="miter" stroke-opacity="1.0" fill-opacity="0.5" stroke="rgb(165,42,42)" stroke-width="1.4751271131668615" fill="rgb(165,42,42)" stroke-linecap="butt" stroke-miterlimit="10.0"><path d="M 151.6667,220.6273 l 1.0301,-3.1702 l -2.6967,-1.9593 l -2.6967,1.9593 l 1.0301,3.1702 Z"/></g><g stroke-linejoin="miter" stroke-opacity="1.0" fill-opacity="0.5" stroke="rgb(165,42,42)" stroke-width="1.4751271131668615" fill="rgb(165,42,42)" stroke-linecap="butt" stroke-miterlimit="10.0"><path d="M 128.3333,267.2940 l 1.0301,-3.1702 l -2.6967,-1.9593 l -2.6967,1.9593 l 1.0301,3.1702 Z"/></g><g stroke-linejoin="miter" stroke-opacity="1.0" fill-opacity="0.5" stroke="rgb(165,42,42)" stroke-width="1.4751271131668615" fill="rgb(165,42,42)" stroke-linecap="butt" stroke-miterlimit="10.0"><path d="M 81.6667,220.6273 l 1.0301,-3.1702 l -2.6967,-1.9593 l -2.6967,1.9593 l 1.0301,3.1702 Z"/></g><g stroke-linejoin="miter" stroke-opacity="1.0" fill-opacity="0.0" stroke="rgb(0,0,255)" stroke-width="1.4751271131668615" fill="rgb(0,0,0)" stroke-dashoffset="0.0" stroke-linecap="butt" stroke-miterlimit="10.0" stroke-dasharray="0.6666666666666664,0.6666666666666664"><path d="M 33.3333,241.6667 l 23.3333,-23.3333 l 23.3333,-23.3333 l 23.3333,46.6667 l 23.3333,-23.3333 l 23.3333,-23.3333 l 23.3333,46.6667 l 23.3333,-23.3333 l 23.3333,-23.3333 l 23.3333,46.6667 l 23.3333,-23.3333 "/></g><g stroke-linejoin="miter" stroke-opacity="1.0" fill-opacity="0.5" stroke="rgb(0,0,255)" stroke-width="1.4751271131668615" fill="rgb(0,0,255)" stroke-linecap="butt" stroke-miterlimit="10.0"><path d="M 268.3333,219.2956 l -1.6667,-2.8868 l -1.6667,2.8868 Z"/></g><g stroke-linejoin="miter" stroke-opacity="1.0" fill-opacity="0.5" stroke="rgb(0,0,255)" stroke-width="1.4751271131668615" fill="rgb(0,0,255)" stroke-linecap="butt" stroke-miterlimit="10.0"><path d="M 245.0000,242.6289 l -1.6667,-2.8868 l -1.6667,2.8868 Z"/></g><g stroke-linejoin="miter" stroke-opacity="1.0" fill-opacity="0.5" stroke="rgb(0,0,255)" stroke-width="1.4751271131668615" fill="rgb(0,0,255)" stroke-linecap="butt" stroke-miterlimit="10.0"><path d="M 221.6667,195.9623 l -1.6667,-2.8868 l -1.6667,2.8868 Z"/></g><g stroke-linejoin="miter" stroke-opacity="1.0" fill-opacity="0.5" stroke="rgb(0,0,255)" stroke-width="1.4751271131668615" fill="rgb(0,0,255)" stroke-linecap="butt" stroke-miterlimit="10.0"><path d="M 198.3333,219.2956 l -1.6667,-2.8868 l -1.6667,2.8868 Z"/></g><g stroke-linejoin="miter" stroke-opacity="1.0" fill-opacity="0.5" stroke="rgb(0,0,255)" stroke-width="1.4751271131668615" fill="rgb(0,0,255)" stroke-linecap="butt" stroke-miterlimit="10.0"><path d="M 175.0000,242.6289 l -1.6667,-2.8868 l -1.6667,2.8868 Z"/></g><g stroke-linejoin="miter" stroke-opacity="1.0" fill-opacity="0.5" stroke="rgb(0,0,255)" stroke-width="1.4751271131668615" fill="rgb(0,0,255)" stroke-linecap="butt" stroke-miterlimit="10.0"><path d="M 151.6667,195.9623 l -1.6667,-2.8868 l -1.6667,2.8868 Z"/></g><g stroke-linejoin="miter" stroke-opacity="1.0" fill-opacity="0.5" stroke="rgb(0,0,255)" stroke-width="1.4751271131668615" fill="rgb(0,0,255)" stroke-linecap="butt" stroke-miterlimit="10.0"><path d="M 128.3333,219.2956 l -1.6667,-2.8868 l -1.6667,2.8868 Z"/></g><g stroke-linejoin="miter" stroke-opacity="1.0" fill-opacity="0.5" stroke="rgb(0,0,255)" stroke-width="1.4751271131668615" fill="rgb(0,0,255)" stroke-linecap="butt" stroke-miterlimit="10.0"><path d="M 105.0000,242.6289 l -1.6667,-2.8868 l -1.6667,2.8868 Z"/></g><g stroke-linejoin="miter" stroke-opacity="1.0" fill-opacity="0.5" stroke="rgb(0,0,255)" stroke-width="1.4751271131668615" fill="rgb(0,0,255)" stroke-linecap="butt" stroke-miterlimit="10.0"><path d="M 81.6667,195.9623 l -1.6667,-2.8868 l -1.6667,2.8868 Z"/></g><g stroke-linejoin="miter" stroke-opacity="1.0" fill-opacity="0.5" stroke="rgb(0,0,255)" stroke-width="1.4751271131668615" fill="rgb(0,0,255)" stroke-linecap="butt" stroke-miterlimit="10.0"><path d="M 58.3333,219.2956 l -1.6667,-2.8868 l -1.6667,2.8868 Z"/></g><g stroke-linejoin="miter" stroke-opacity="1.0" fill-opacity="0.5" stroke="rgb(0,0,255)" stroke-width="1.4751271131668615" fill="rgb(0,0,255)" stroke-linecap="butt" stroke-miterlimit="10.0"><path d="M 35.0000,242.6289 l -1.6667,-2.8868 l -1.6667,2.8868 Z"/></g><g stroke-linejoin="miter" stroke-opacity="1.0" fill-opacity="0.0" stroke="rgb(0,128,0)" stroke-width="1.4751271131668615" fill="rgb(0,0,0)" stroke-dashoffset="0.0" stroke-linecap="butt" stroke-miterlimit="10.0" stroke-dasharray="3.333333333333332,3.333333333333332"><path d="M 33.3333,78.3333 l 23.3333,23.3333 l 23.3333,23.3333 l 23.3333,23.3333 l 23.3333,23.3333 l 23.3333,23.3333 l 23.3333,23.3333 l 23.3333,23.3333 l 23.3333,23.3333 l 23.3333,23.3333 l 23.3333,23.3333 "/></g><g stroke-linejoin="miter" stroke-opacity="1.0" fill-opacity="0.5" stroke="rgb(0,128,0)" stroke-width="1.4751271131668615" fill="rgb(0,128,0)" stroke-linecap="butt" stroke-miterlimit="10.0"><path d="M 268.3333,313.3333 l -0.0000,-3.3333 h -3.3333 l -0.0000,3.3333 Z"/></g><g stroke-linejoin="miter" stroke-opacity="1.0" fill-opacity="0.5" stroke="rgb(0,128,0)" stroke-width="1.4751271131668615" fill="rgb(0,128,0)" stroke-linecap="butt" stroke-miterlimit="10.0"><path d="M 245.0000,290.0000 l -0.0000,-3.3333 h -3.3333 l -0.0000,3.3333 Z"/></g><g stroke-linejoin="miter" stroke-opacity="1.0" fill-opacity="0.5" stroke="rgb(0,128,0)" stroke-width="1.4751271131668615" fill="rgb(0,128,0)" stroke-linecap="butt" stroke-miterlimit="10.0"><path d="M 221.6667,266.6667 l -0.0000,-3.3333 h -3.3333 l -0.0000,3.3333 Z"/></g><g stroke-linejoin="miter" stroke-opacity="1.0" fill-opacity="0.5" stroke="rgb(0,128,0)" stroke-width="1.4751271131668615" fill="rgb(0,128,0)" stroke-linecap="butt" stroke-miterlimit="10.0"><path d="M 198.3333,243.3333 l -0.0000,-3.3333 h -3.3333 l -0.0000,3.3333 Z"/></g><g stroke-linejoin="miter" stroke-opacity="1.0" fill-opacity="0.5" stroke="rgb(0,128,0)" stroke-width="1.4751271131668615" fill="rgb(0,128,0)" stroke-linecap="butt" stroke-miterlimit="10.0"><path d="M 175.0000,220.0000 l -0.0000,-3.3333 h -3.3333 l -0.0000,3.3333 Z"/></g><g stroke-linejoin="miter" stroke-opacity="1.0" fill-opacity="0.5" stroke="rgb(0,128,0)" stroke-width="1.4751271131668615" fill="rgb(0,128,0)" stroke-linecap="butt" stroke-miterlimit="10.0"><path d="M 151.6667,196.6667 l -0.0000,-3.3333 h -3.3333 l -0.0000,3.3333 Z"/></g><g stroke-linejoin="miter" stroke-opacity="1.0" fill-opacity="0.5" stroke="rgb(0,128,0)" stroke-width="1.4751271131668615" fill="rgb(0,128,0)" stroke-linecap="butt" stroke-miterlimit="10.0"><path d="M 128.3333,173.3333 l -0.0000,-3.3333 h -3.3333 l -0.0000,3.3333 Z"/></g><g stroke-linejoin="miter" stroke-opacity="1.0" fill-opacity="0.5" stroke="rgb(0,128,0)" stroke-width="1.4751271131668615" fill="rgb(0,128,0)" stroke-linecap="butt" stroke-miterlimit="10.0"><path d="M 105.0000,150.0000 l -0.0000,-3.3333 h -3.3333 l -0.0000,3.3333 Z"/></g><g stroke-linejoin="miter" stroke-opacity="1.0" fill-opacity="0.5" stroke="rgb(0,128,0)" stroke-width="1.4751271131668615" fill="rgb(0,128,0)" stroke-linecap="butt" stroke-miterlimit="10.0"><path d="M 81.6667,126.6667 l -0.0000,-3.3333 h -3.3333 l -0.0000,3.3333 Z"/></g><g stroke-linejoin="miter" stroke-opacity="1.0" fill-opacity="0.5" stroke="rgb(0,128,0)" stroke-width="1.4751271131668615" fill="rgb(0,128,0)" stroke-linecap="butt" stroke-miterlimit="10.0"><path d="M 58.3333,103.3333 l -0.0000,-3.3333 h -3.3333 l -0.0000,3.3333 Z"/></g><g stroke-linejoin="miter" stroke-opacity="1.0" fill-opacity="0.5" stroke="rgb(0,128,0)" stroke-width="1.4751271131668615" fill="rgb(0,128,0)" stroke-linecap="butt" stroke-miterlimit="10.0"><path d="M 35.0000,80.0000 l -0.0000,-3.3333 h -3.3333 l -0.0000,3.3333 Z"/></g><g stroke-linejoin="miter" stroke-opacity="1.0" fill-opacity="0.0" stroke="rgb(255,0,0)" stroke-width="1.4751271131668615" fill="rgb(0,0,0)" stroke-linecap="butt" stroke-miterlimit="10.0"><path d="M 33.3333,311.6667 l 23.3333,-23.3333 l 23.3333,-23.3333 l 23.3333,-23.3333 l 23.3333,-23.3333 l 23.3333,-23.3333 l 23.3333,-23.3333 l 23.3333,-23.3333 l 23.3333,-23.3333 l 23.3333,-23.3333 l 23.3333,-23.3333 "/></g><g stroke-linejoin="miter" stroke-opacity="1.0" fill-opacity="0.5" stroke="rgb(255,0,0)" stroke-width="1.4751271131668615" fill="rgb(255,0,0)" stroke-linecap="butt" stroke-miterlimit="10.0"><path d="M 269.0000,78.3333 c 0.0000,-1.2887 -1.0447,-2.3333 -2.3333 -2.3333c -1.2887,-0.0000 -2.3333,1.0447 -2.3333 2.3333c -0.0000,1.2887 1.0447,2.3333 2.3333 2.3333c 1.2887,0.0000 2.3333,-1.0447 2.3333 -2.3333Z"/></g><g stroke-linejoin="miter" stroke-opacity="1.0" fill-opacity="0.5" stroke="rgb(255,0,0)" stroke-width="1.4751271131668615" fill="rgb(255,0,0)" stroke-linecap="butt" stroke-miterlimit="10.0"><path d="M 245.6667,101.6667 c 0.0000,-1.2887 -1.0447,-2.3333 -2.3333 -2.3333c -1.2887,-0.0000 -2.3333,1.0447 -2.3333 2.3333c -0.0000,1.2887 1.0447,2.3333 2.3333 2.3333c 1.2887,0.0000 2.3333,-1.0447 2.3333 -2.3333Z"/></g><g stroke-linejoin="miter" stroke-opacity="1.0" fill-opacity="0.5" stroke="rgb(255,0,0)" stroke-width="1.4751271131668615" fill="rgb(255,0,0)" stroke-linecap="butt" stroke-miterlimit="10.0"><path d="M 222.3333,125.0000 c 0.0000,-1.2887 -1.0447,-2.3333 -2.3333 -2.3333c -1.2887,-0.0000 -2.3333,1.0447 -2.3333 2.3333c -0.0000,1.2887 1.0447,2.3333 2.3333 2.3333c 1.2887,0.0000 2.3333,-1.0447 2.3333 -2.3333Z"/></g><g stroke-linejoin="miter" stroke-opacity="1.0" fill-opacity="0.5" stroke="rgb(255,0,0)" stroke-width="1.4751271131668615" fill="rgb(255,0,0)" stroke-linecap="butt" stroke-miterlimit="10.0"><path d="M 199.0000,148.3333 c 0.0000,-1.2887 -1.0447,-2.3333 -2.3333 -2.3333c -1.2887,-0.0000 -2.3333,1.0447 -2.3333 2.3333c -0.0000,1.2887 1.0447,2.3333 2.3333 2.3333c 1.2887,0.0000 2.3333,-1.0447 2.3333 -2.3333Z"/></g><g stroke-linejoin="miter" stroke-opacity="1.0" fill-opacity="0.5" stroke="rgb(255,0,0)" stroke-width="1.4751271131668615" fill="rgb(255,0,0)" stroke-linecap="butt" stroke-miterlimit="10.0"><path d="M 175.6667,171.6667 c 0.0000,-1.2887 -1.0447,-2.3333 -2.3333 -2.3333c -1.2887,-0.0000 -2.3333,1.0447 -2.3333 2.3333c -0.0000,1.2887 1.0447,2.3333 2.3333 2.3333c 1.2887,0.0000 2.3333,-1.0447 2.3333 -2.3333Z"/></g><g stroke-linejoin="miter" stroke-opacity="1.0" fill-opacity="0.5" stroke="rgb(255,0,0)" stroke-width="1.4751271131668615" fill="rgb(255,0,0)" stroke-linecap="butt" stroke-miterlimit="10.0"><path d="M 152.3333,195.0000 c 0.0000,-1.2887 -1.0447,-2.3333 -2.3333 -2.3333c -1.2887,-0.0000 -2.3333,1.0447 -2.3333 2.3333c -0.0000,1.2887 1.0447,2.3333 2.3333 2.3333c 1.2887,0.0000 2.3333,-1.0447 2.3333 -2.3333Z"/></g><g stroke-linejoin="miter" stroke-opacity="1.0" fill-opacity="0.5" stroke="rgb(255,0,0)" stroke-width="1.4751271131668615" fill="rgb(255,0,0)" stroke-linecap="butt" stroke-miterlimit="10.0"><path d="M 129.0000,218.3333 c 0.0000,-1.2887 -1.0447,-2.3333 -2.3333 -2.3333c -1.2887,-0.0000 -2.3333,1.0447 -2.3333 2.3333c -0.0000,1.2887 1.0447,2.3333 2.3333 2.3333c 1.2887,0.0000 2.3333,-1.0447 2.3333 -2.3333Z"/></g><g stroke-linejoin="miter" stroke-opacity="1.0" fill-opacity="0.5" stroke="rgb(255,0,0)" stroke-width="1.4751271131668615" fill="rgb(255,0,0)" stroke-linecap="butt" stroke-miterlimit="10.0"><path d="M 105.6667,241.6667 c 0.0000,-1.2887 -1.0447,-2.3333 -2.3333 -2.3333c -1.2887,-0.0000 -2.3333,1.0447 -2.3333 2.3333c -0.0000,1.2887 1.0447,2.3333 2.3333 2.3333c 1.2887,0.0000 2.3333,-1.0447 2.3333 -2.3333Z"/></g><g stroke-linejoin="miter" stroke-opacity="1.0" fill-opacity="0.5" stroke="rgb(255,0,0)" stroke-width="1.4751271131668615" fill="rgb(255,0,0)" stroke-linecap="butt" stroke-miterlimit="10.0"><path d="M 82.3333,265.0000 c 0.0000,-1.2887 -1.0447,-2.3333 -2.3333 -2.3333c -1.2887,-0.0000 -2.3333,1.0447 -2.3333 2.3333c -0.0000,1.2887 1.0447,2.3333 2.3333 2.3333c 1.2887,0.0000 2.3333,-1.0447 2.3333 -2.3333Z"/></g><g stroke-linejoin="miter" stroke-opacity="1.0" fill-opacity="0.5" stroke="rgb(255,0,0)" stroke-width="1.4751271131668615" fill="rgb(255,0,0)" stroke-linecap="butt" stroke-miterlimit="10.0"><path d="M 59.0000,288.3333 c 0.0000,-1.2887 -1.0447,-2.3333 -2.3333 -2.3333c -1.2887,-0.0000 -2.3333,1.0447 -2.3333 2.3333c -0.0000,1.2887 1.0447,2.3333 2.3333 2.3333c 1.2887,0.0000 2.3333,-1.0447 2.3333 -2.3333Z"/></g><g stroke-linejoin="miter" stroke-opacity="1.0" fill-opacity="0.5" stroke="rgb(255,0,0)" stroke-width="1.4751271131668615" fill="rgb(255,0,0)" stroke-linecap="butt" stroke-miterlimit="10.0"><path d="M 35.6667,311.6667 c 0.0000,-1.2887 -1.0447,-2.3333 -2.3333 -2.3333c -1.2887,-0.0000 -2.3333,1.0447 -2.3333 2.3333c -0.0000,1.2887 1.0447,2.3333 2.3333 2.3333c 1.2887,0.0000 2.3333,-1.0447 2.3333 -2.3333Z"/></g></svg>